TexturaLibera-Expanded.sfdir
StartChar: exclam
Encoding: 33 33 1
Width: 360
Flags: MW
LayerCount: 4
Fore
SplineSet
150 60 m 25
 210 0 l 1049
150 540 m 1
 150 540 167 516 168 500 c 24
 178 383 180 200 180 200 c 1
 180 200 184 383 192 500 c 24
 194 539 210 600 210 600 c 9
 150 540 l 1
EndSplineSet
EndChar
StartChar: quotedbl
Encoding: 34 34 2
Width: 600
Flags: MW
LayerCount: 4
Fore
SplineSet
395 590 m 29
 445 540 l 5
 445 490 l 29
 370 415 l 1053
155 590 m 25
 205 540 l 1
 205 490 l 25
 130 415 l 1049
EndSplineSet
EndChar
StartChar: dollar
Encoding: 36 36 4
Width: 720
Flags: MW
LayerCount: 4
Fore
SplineSet
360 700 m 25
 360 -150 l 1049
660 600 m 17
 660 600 610 550 570 550 c 24
 440 550 240 600 240 600 c 9
 120 480 l 1
 120 340 l 1
 600 260 l 1
 600 120 l 1
 480 0 l 17
 480 0 280 50 150 50 c 24
 110 50 60 0 60 0 c 1025
EndSplineSet
EndChar
StartChar: percent
Encoding: 37 37 5
Width: 840
Flags: MW
LayerCount: 4
Fore
SplineSet
600 200 m 25
 480 80 l 25
 480 -30 l 25
 600 -150 l 25
 720 -30 l 25
 720 80 l 25
 600 200 l 25
60 -150 m 25
 780 700 l 1049
240 700 m 25
 120 580 l 25
 120 470 l 25
 240 350 l 25
 360 470 l 25
 360 580 l 25
 240 700 l 25
EndSplineSet
EndChar
StartChar: quotesingle
Encoding: 39 39 7
Width: 360
Flags: MW
LayerCount: 4
Fore
SplineSet
155 590 m 25
 205 540 l 1
 205 490 l 25
 130 415 l 1049
EndSplineSet
EndChar
StartChar: parenleft
Encoding: 40 40 8
Width: 300
Flags: MW
LayerCount: 4
Fore
SplineSet
240 700 m 17
 240 700 60 575 60 275 c 0
 60 -25 240 -150 240 -150 c 1033
EndSplineSet
EndChar
StartChar: parenright
Encoding: 41 41 9
Width: 300
Flags: MW
LayerCount: 4
Fore
SplineSet
60 700 m 17
 60 700 240 575 240 275 c 0
 240 -25 60 -150 60 -150 c 1033
EndSplineSet
EndChar
StartChar: asterisk
Encoding: 42 42 10
Width: 600
Flags: W
HStem: 526 20G<125 192.391 456.818 525> 626 20G<305 345>
VStem: 254 92<275 350 500 575>
LayerCount: 2
Back
SplineSet
120 350 m 25
 480 500 l 1049
300 600 m 25
 300 250 l 1049
120 500 m 25
 480 350 l 1049
EndSplineSet
Fore
SplineSet
74 475 m 1
 145 546 l 1
 254 500 l 1
 254 575 l 1
 325 646 l 1
 346 625 l 1
 346 480 l 1
 505 546 l 1
 526 525 l 1
 455 454 l 1
 410 435 l 1
 505 396 l 1
 526 375 l 1
 455 304 l 1
 346 350 l 1
 346 275 l 1
 275 204 l 1
 254 225 l 1
 254 370 l 1
 95 304 l 1
 74 325 l 1
 145 396 l 1
 190 415 l 1
 95 454 l 1
 74 475 l 1
EndSplineSet
EndChar
StartChar: comma
Encoding: 44 44 12
Width: 360
Flags: MW
LayerCount: 4
Fore
SplineSet
150 60 m 25
 210 0 l 1
 210 -60 l 25
 120 -150 l 1049
EndSplineSet
EndChar
StartChar: period
Encoding: 46 46 14
Width: 360
Flags: W
HStem: -46 152
VStem: 104 152
LayerCount: 2
Back
SplineSet
150 60 m 25
 210 0 l 1049
EndSplineSet
Fore
SplineSet
104 35 m 1
 175 106 l 1
 256 25 l 1
 185 -46 l 1
 104 35 l 1
EndSplineSet
EndChar
StartChar: slash
Encoding: 47 47 15
Width: 600
Flags: MW
LayerCount: 4
Fore
SplineSet
60 -150 m 25
 540 700 l 1049
EndSplineSet
EndChar
StartChar: zero
Encoding: 48 48 16
Width: 480
Flags: W
HStem: -46 21G<175 235> 426 20G<245 305> 426 20G<245 305>
VStem: 74 92<95 255> 314 92<145 305>
LayerCount: 2
Back
SplineSet
240 400 m 1
 120 280 l 1
 120 60 l 25
 240 0 l 1
 360 120 l 1
 360 340 l 25
 240 400 l 1
EndSplineSet
Fore
SplineSet
215 354 m 1x98
 166 305 l 1
 166 95 l 1
 265 46 l 2
 265 46 310 91 314 95 c 2
 314 305 l 1
 215 354 l 1x98
74 255 m 1
 265 446 l 1xd8
 385 386 l 1
 406 365 l 1
 406 145 l 1
 215 -46 l 1
 95 14 l 1
 74 35 l 1
 74 255 l 1
EndSplineSet
Substitution2: "Subscript forms-1" zero.inferior
Substitution2: "Superscript forms-1" zero.superior
EndChar
StartChar: one
Encoding: 49 49 17
Width: 480
Flags: MW
LayerCount: 4
Fore
SplineSet
150 60 m 25
 270 0 l 1
 330 60 l 1049
270 340 m 25
 210 400 l 25
 150 340 l 1049
240 370 m 9
 240 30 l 1025
EndSplineSet
Substitution2: "Subscript forms-1" one.inferior
Substitution2: "Superscript forms-1" one.superior
EndChar
StartChar: three
Encoding: 51 51 19
Width: 480
Flags: MW
LayerCount: 4
Fore
SplineSet
120 350 m 1
 180 400 l 1
 240 400 l 1
 330 350 l 1
 330 270 l 1
 210 150 l 1049
90 -200 m 25
 67 -220 140 -150 180 -150 c 27
 231 -150 300 -200 300 -200 c 9
 360 -140 l 1
 360 85 l 9
 270 175 l 1049
EndSplineSet
Substitution2: "Subscript forms-1" three.inferior
Substitution2: "Superscript forms-1" three.superior
EndChar
StartChar: seven
Encoding: 55 55 23
Width: 480
Flags: MW
LayerCount: 4
Fore
SplineSet
215 -100 m 25
 265 -150 l 1049
90 400 m 1
 90 400 164 350 270 350 c 3
 335 350 420 400 420 400 c 1
 420 400 240 276 240 0 c 3
 240 -32 240 -125 240.833007812 -125 c 1025
120 125 m 25
 120 125 176 150 210 150 c 24
 263 150 247 125 300 125 c 24
 334 125 390 150 391 150 c 1049
EndSplineSet
Substitution2: "Subscript forms-1" seven.inferior
Substitution2: "Superscript forms-1" seven.superior
EndChar
StartChar: nine
Encoding: 57 57 25
Width: 480
Flags: W
HStem: -196 92<149.681 227.532> -46 21G<195 235> 426 20G<245 285> 426 20G<245 285>
VStem: 74 92<145 255> 314 92<-115 53 95 255>
LayerCount: 2
Back
SplineSet
360 120 m 1
 240 0 l 1
 120 120 l 25
 120 280 l 25
 240 400 l 25
 360 280 l 1
 360 -140 l 9
 300 -200 l 17
 300 -200 231 -150 180 -150 c 27
 140 -150 90 -200 90 -200 c 1025
EndSplineSet
Fore
SplineSet
314 95 m 1xcc
 314 255 l 1
 215 354 l 1
 166 305 l 1
 166 145 l 1
 265 46 l 1
 314 95 l 1xcc
314 53 m 1
 215 -46 l 1
 74 95 l 1
 74 255 l 1
 265 446 l 1xec
 406 305 l 1
 406 -115 l 1
 275 -246 l 1
 275 -246 206 -196 155 -196 c 0
 115 -196 65 -246 65 -246 c 1
 44 -225 l 1
 115 -154 l 1
 115 -154 165 -104 205 -104 c 0
 244 -104 293 -133 314 -147 c 1
 314 53 l 1
EndSplineSet
Substitution2: "Subscript forms-1" nine.inferior
Substitution2: "Superscript forms-1" nine.superior
EndChar
StartChar: colon
Encoding: 58 58 26
Width: 360
Flags: MW
LayerCount: 4
Fore
SplineSet
155 350 m 25
 205 300 l 1049
155 50 m 25
 205 0 l 1049
EndSplineSet
EndChar
StartChar: semicolon
Encoding: 59 59 27
Width: 360
Flags: MW
LayerCount: 4
Fore
SplineSet
150 60 m 25
 210 0 l 1
 210 -60 l 25
 120 -150 l 1049
150 350 m 25
 210 290 l 1049
EndSplineSet
EndChar
StartChar: question
Encoding: 63 63 31
Width: 480
Flags: MW
LayerCount: 4
Fore
SplineSet
120 450 m 25
 120 510 l 25
 210 600 l 25
 360 550 l 25
 360 440 l 25
 240 320 l 25
 240 200 l 1049
210 60 m 25
 270 0 l 1049
EndSplineSet
EndChar
StartChar: at
Encoding: 64 64 32
Width: 960
Flags: MW
LayerCount: 4
Fore
SplineSet
780 -50 m 1
 780 -50 660 -150 480 -150 c 11
 280 -150 120 25 120 225 c 27
 120 442 323 600 540 600 c 27
 697 600 840 482 840 325 c 27
 840 216 690 85 690 85 c 26
 630 25 l 1
 600 55 l 1
 600 425 l 1
 600 425 574 377 540 377 c 0
 506 377 480 425 480 425 c 9
 360 305 l 1
 360 115 l 17
 450 25 l 1
 600 175 l 1049
EndSplineSet
EndChar
StartChar: A
Encoding: 65 65 33
Width: 840
Flags: MW
AnchorPoint: "blwmark" 480 0 basechar 0
AnchorPoint: "abvmark" 540 700 basechar 0
LayerCount: 4
Fore
SplineSet
630 540 m 25
 570 600 l 25
 510 540 l 1049
240 300 m 1
 240 300 276 350 360 350 c 3
 512 350 600 250 601 250 c 1025
270 575 m 1
 270 575 282 600 330 600 c 11
 389 600 420 549 420 500 c 3
 420 263 211 75 211 75 c 1025
60 0 m 17
 60 0 97 50 180 50 c 3
 298 50 330 0 330 0 c 1025
600 570 m 1
 660 60 l 1
 720 0 l 9
 780 60 l 1049
EndSplineSet
EndChar
StartChar: E
Encoding: 69 69 37
Width: 900
Flags: MW
AnchorPoint: "blwmark" 480 0 basechar 0
AnchorPoint: "abvmark" 540 700 basechar 0
LayerCount: 4
Fore
SplineSet
510 300 m 25
 510 300 566 350 600 350 c 27
 642 350 618 300 660 300 c 3
 709 300 750 350 751 350 c 1049
510 500 m 1
 510 100 l 1025
360 600 m 1
 360 600 150 480 150 300 c 3
 150 134 264 0 480 0 c 3
 623 0 781 150 782 150 c 1025
360 492 m 1
 360 492 474 600 546 600 c 3
 623 600 590 550 660 550 c 3
 718 550 750 600 751 600 c 1025
EndSplineSet
Layer: 2
SplineSet
360 550 m 5
 360 100 l 1029
EndSplineSet
EndChar
StartChar: F
Encoding: 70 70 38
Width: 840
Flags: MW
AnchorPoint: "blwmark" 420 0 basechar 0
AnchorPoint: "abvmark" 480 700 basechar 0
LayerCount: 4
Fore
SplineSet
60 0 m 17
 60 0 97 50 180 50 c 3
 298 50 330 0 330 0 c 9
 390 60 l 1
 390 540 l 1
 450 600 l 1
 450 600 525 525 600 525 c 27
 667 525 720 600 721 600 c 1025
60 550 m 1
 60 550 101 600 149 600 c 3
 192 600 214 575 240 575 c 3
 274 575 300 600 301 600 c 1025
420 300 m 1
 420 300 471 350 505 350 c 3
 547 350 558 300 600 300 c 3
 649 300 690 350 691 350 c 1049
EndSplineSet
Layer: 2
SplineSet
240 550 m 1
 240 75 l 1025
EndSplineSet
EndChar
StartChar: G
Encoding: 71 71 39
Width: 900
Flags: MW
AnchorPoint: "blwmark" 480 0 basechar 0
AnchorPoint: "abvmark" 540 700 basechar 0
LayerCount: 4
Fore
SplineSet
570 300 m 17
 570 300 626 364 690 364 c 3
 757 364 780 306 780 200 c 3
 780 75 623 0 480 0 c 3
 264 0 150 134 150 300 c 3
 150 480 360 600 360 600 c 1025
510 500 m 1
 510 100 l 1025
360 492 m 1
 360 492 474 600 546 600 c 3
 623 600 590 550 660 550 c 3
 718 550 750 600 751 600 c 1025
EndSplineSet
Layer: 2
SplineSet
360 550 m 5
 360 100 l 1029
EndSplineSet
EndChar
StartChar: H
Encoding: 72 72 40
Width: 840
Flags: MW
AnchorPoint: "blwmark" 480 0 basechar 0
AnchorPoint: "abvmark" 480 700 basechar 0
LayerCount: 4
Fore
SplineSet
60 550 m 1
 60 550 101 600 149 600 c 3
 192 600 214 575 240 575 c 3
 274 575 300 600 301 600 c 1025
450 225 m 1
 600 375 l 1
 660 315 l 1
 660 60 l 1
 720 0 l 9
 780 60 l 1049
450 600 m 1
 390 540 l 1
 390 60 l 1
 330 0 l 1
 330 0 298 50 180 50 c 3
 97 50 60 0 60 0 c 1033
EndSplineSet
Layer: 2
SplineSet
240 550 m 5
 240 75 l 1029
EndSplineSet
EndChar
StartChar: I
Encoding: 73 73 41
Width: 540
Flags: MW
AnchorPoint: "blwmark" 300 0 basechar 0
AnchorPoint: "abvmark" 300 700 basechar 0
LayerCount: 4
Fore
SplineSet
60 550 m 1
 60 550 101 600 149 600 c 3
 192 600 214 575 240 575 c 3
 274 575 300 600 301 600 c 1025
450 600 m 1
 390 540 l 1
 390 60 l 1
 330 0 l 17
 330 0 298 50 180 50 c 3
 97 50 60 0 60 0 c 1033
EndSplineSet
Layer: 2
SplineSet
240 550 m 5
 240 75 l 1029
EndSplineSet
EndChar
StartChar: J
Encoding: 74 74 42
Width: 540
Flags: MW
AnchorPoint: "abvmark" 300 700 basechar 0
LayerCount: 4
Fore
SplineSet
60 550 m 1
 60 550 101 600 149 600 c 3
 192 600 214 575 240 575 c 3
 274 575 300 600 301 600 c 1025
450 600 m 1
 390 540 l 1
 390 -50 l 1
 240 -200 l 1
 240 -200 208 -150 90 -150 c 3
 7 -150 -30 -200 -30 -200 c 1025
EndSplineSet
Layer: 2
SplineSet
240 550 m 5
 240 -125 l 1029
EndSplineSet
EndChar
StartChar: L
Encoding: 76 76 44
Width: 840
Flags: W
HStem: -46 21G<15 50 407 595> 4 92<120.289 225 255 409.318> 504 21G<15 54> 554 92<115.988 198.032> 554 67<255.605 276>
VStem: 225 30<96 530> 344 92<175 515> 614 92<176.606 236.115>
AnchorPoint: "blwmark" 420 0 basechar 0
AnchorPoint: "abvmark" 480 700 basechar 0
LayerCount: 2
Back
SplineSet
60 550 m 1
 60 550 101 600 149 600 c 3
 192 600 214 575 240 575 c 3
 274 575 300 600 301 600 c 1025
240 550 m 1
 240 75 l 1025
390 150 m 1
 390 540 l 1
 450 600 l 1025
720 300 m 1
 720 300 660 253.200195312 660 210 c 3
 660 136.799804688 720 121.200195312 720 121.200195312 c 1
 600 0 l 17
 600 0 419 50 180 50 c 3
 97 50 60 0 60 0 c 1033
EndSplineSet
Fore
SplineSet
766 325 m 1xef
 730 289 l 2
 717 272 706 254 706 235 c 0
 706 210 713 191 722 178 c 0
 730 173 737 170 741 168 c 0
 743 167 745 167 745 167 c 1
 766 146 l 1
 646 25 l 1
 575 -46 l 1
 575 -46 394 4 155 4 c 0
 101 4 67 -17 50 -31 c 2
 35 -46 l 1
 14 -25 l 2
 14 -25 16 -22 20 -18 c 2
 21 -18 l 2
 91 53 l 2
 105 67 142 96 205 96 c 0
 212 96 218 96 225 96 c 1
 225 530 l 2
 222 530 218 529 215 529 c 0
 189 529 167 554 124 554 c 0
 96 554 71 537 54 522 c 2
 35 504 l 1
 14 525 l 1
 14 525 17 529 22 534 c 2
 93 605 l 2
 94 606 l 0
 109 621 140 646 174 646 c 0xf7
 217 646 239 621 265 621 c 0xef
 299 621 325 646 326 646 c 2xf7
 347 625 l 1
 276 554 l 2
 275 554 268 547 255 540 c 1
 255 95 l 1
 461 89 614 49 624 46 c 1
 668 90 l 2
 666 91 663 94 661 96 c 0
 640 118 l 2
 627 131 614 152 614 185 c 0
 614 212 637 240 655 258 c 2
 725 328 l 2
 736 339 745 346 745 346 c 1
 766 325 l 1xef
365 104 m 1
 344 125 l 1
 344 515 l 1
 475 646 l 1
 496 625 l 1
 436 565 l 1
 436 175 l 1
 365 104 l 1
EndSplineSet
EndChar
StartChar: N
Encoding: 78 78 46
Width: 900
Flags: MW
AnchorPoint: "blwmark" 480 0 basechar 0
AnchorPoint: "abvmark" 480 700 basechar 0
LayerCount: 4
Fore
SplineSet
60 550 m 1
 60 550 101 600 149 600 c 3
 192 600 214 575 240 575 c 3
 274 575 300 600 301 600 c 1025
60 0 m 17
 60 0 97 50 180 50 c 3
 298 50 330 0 330 0 c 1
 390 60 l 1
 390 540 l 1
 450 600 l 1
 660 450 l 1
 660 50 l 1
 710 0 l 9
 760 50 l 1049
EndSplineSet
Layer: 2
SplineSet
240 550 m 5
 240 75 l 1029
EndSplineSet
EndChar
StartChar: O
Encoding: 79 79 47
Width: 960
Flags: MW
AnchorPoint: "blwmark" 480 0 basechar 0
AnchorPoint: "abvmark" 540 700 basechar 0
LayerCount: 4
Fore
SplineSet
512 550 m 1
 510 100 l 1025
360 600 m 1
 360 600 150 480 150 300 c 3
 150 134 264 0 480 0 c 3
 623 0 784 142 784 300 c 3
 784 512 673 600 540 600 c 3
 436 600 360 492 360 492 c 1025
EndSplineSet
Layer: 2
SplineSet
360 550 m 5
 360 100 l 1029
EndSplineSet
EndChar
StartChar: Q
Encoding: 81 81 49
Width: 960
Flags: MW
AnchorPoint: "blwmark" 480 0 basechar 0
AnchorPoint: "abvmark" 540 700 basechar 0
LayerCount: 4
Fore
SplineSet
660 0 m 25
 660 0 678 25 720 25 c 27
 762 25 786 0 828 0 c 27
 862 0 900 50 900 50 c 1049
512 550 m 1
 510 100 l 1025
360 600 m 1
 360 600 150 480 150 300 c 3
 150 134 264 0 480 0 c 3
 623 0 784 142 784 300 c 3
 784 512 673 600 540 600 c 3
 436 600 360 492 360 492 c 1025
EndSplineSet
Layer: 2
SplineSet
360 550 m 5
 360 100 l 1029
EndSplineSet
EndChar
StartChar: R
Encoding: 82 82 50
Width: 840
Flags: MW
AnchorPoint: "blwmark" 480 0 basechar 0
AnchorPoint: "abvmark" 480 700 basechar 0
LayerCount: 4
Fore
SplineSet
60 550 m 1
 60 550 101 600 149 600 c 3
 192 600 214 575 240 575 c 3
 274 575 300 600 301 600 c 1025
540 295 m 1
 720 475 l 1
 450 600 l 1
 390 540 l 1
 390 60 l 1
 330 0 l 1
 330 0 298 50 180 50 c 3
 97 50 60 0 60 0 c 1033
620 355 m 1
 660 325 l 1
 660 60 l 1
 720 0 l 9
 780 60 l 1049
EndSplineSet
Layer: 2
SplineSet
240 550 m 5
 240 75 l 1029
EndSplineSet
EndChar
StartChar: S
Encoding: 83 83 51
Width: 840
Flags: MW
AnchorPoint: "blwmark" 420 0 basechar 0
AnchorPoint: "abvmark" 420 700 basechar 0
LayerCount: 4
Fore
SplineSet
660 525 m 25
 148 100 l 1049
540 169 m 1
 120 290 l 9
 180 375 l 1049
720 600 m 1
 720 600 617 550 540 550 c 3
 455 550 240 600 240 600 c 1
 120 500 l 1
 120 440 l 1
 720 260 l 1
 720 100 l 1
 600 0 l 1
 600 0 324 50 240 50 c 3
 152 50 60 0 60 0 c 1025
EndSplineSet
EndChar
StartChar: T
Encoding: 84 84 52
Width: 840
Flags: MW
AnchorPoint: "blwmark" 420 0 basechar 0
AnchorPoint: "abvmark" 480 700 basechar 0
LayerCount: 4
Fore
SplineSet
480 450 m 1
 480 100 l 1049
300 450 m 1
 300 450 150 356 150 250 c 3
 150 84 257 0 420 0 c 3
 563 0 721 150 722 150 c 1049
120 500 m 17
 120 500 216 600 300 600 c 27
 396 600 418 500 514 500 c 19
 606 500 690 600 691 600 c 1033
EndSplineSet
Layer: 2
SplineSet
330 450 m 5
 330 100 l 1053
EndSplineSet
EndChar
StartChar: U
Encoding: 85 85 53
Width: 840
Flags: MW
AnchorPoint: "blwmark" 420 0 basechar 0
AnchorPoint: "abvmark" 540 700 basechar 0
LayerCount: 4
Fore
SplineSet
480 550 m 1
 480 100 l 1025
690 60 m 25
 750 0 l 25
 810 60 l 1049
690 625 m 25
 750 565 l 1049
720 595 m 9
 720 30 l 1049
300 550 m 1
 300 550 150 466 150 250 c 3
 150 84 257 0 420 0 c 3
 563 0 721 150 722 150 c 1049
60 550 m 1
 60 550 101 600 149 600 c 3
 245 600 274 575 480 575 c 3
 514 575 540 600 541 600 c 1025
EndSplineSet
Layer: 2
SplineSet
330 525 m 5
 330 50 l 1029
EndSplineSet
EndChar
StartChar: V
Encoding: 86 86 54
Width: 840
Flags: MW
AnchorPoint: "blwmark" 450 0 basechar 0
AnchorPoint: "abvmark" 540 700 basechar 0
LayerCount: 4
Fore
SplineSet
60 550 m 1
 60 550 101 600 149 600 c 3
 192 600 214 575 240 575 c 3
 274 575 300 600 301 600 c 1025
390 250 m 1
 390 540 l 1
 450 600 l 1025
120 100 m 17
 120 100 166 150 210 150 c 3
 449 150 450 0 450 0 c 1
 690 241.200195312 l 1
 690 378 l 1
 690 378 600 382.799804688 600 450 c 3
 600 516 720 600 720 600 c 1025
EndSplineSet
Layer: 2
SplineSet
240 550 m 5
 240 175 l 1029
EndSplineSet
EndChar
StartChar: W
Encoding: 87 87 55
Width: 1200
Flags: W
HStem: -46 21G<405 445 765 805> 104 92<255 318.109> 504 21G<15 54> 554 92<115.988 198.032> 554 67<255.605 276>
VStem: 225 30<196 530> 344 92<275 515> 644 92<266 535> 914 92<415.5 480.735> 1004 92<266 341.617>
AnchorPoint: "blwmark" 660 0 basechar 0
AnchorPoint: "abvmark" 690 700 basechar 0
LayerCount: 2
Back
SplineSet
660 600 m 25
 720 540 l 1049
60 550 m 1
 60 550 101 600 149 600 c 3
 192 600 214 575 240 575 c 3
 274 575 300 600 301 600 c 1025
240 550 m 1
 240 175 l 1025
390 250 m 1
 390 540 l 1
 450 600 l 1025
120 100 m 17
 120 100 166 150 210 150 c 3
 449 150 450 0 450 0 c 1
 690 241.200195312 l 1
 690 570 l 1025
1080 600 m 1
 1080 600 960 516 960 450 c 3
 960 382.799804688 1050 378 1050 378 c 1
 1050 241.200195312 l 1
 810 0 l 1
 690 241.200195312 l 1049
EndSplineSet
Fore
SplineSet
1126 625 m 1xf780
 1055 554 l 1
 1055 554 1045 547 1032 536 c 1
 1017 515 1006 495 1006 475 c 0xef80
 1006 462 1009 451 1014 443 c 1
 1040 426 1075 424 1075 424 c 2
 1096 403 l 1
 1096 266 l 1
 856 25 l 1
 785 -46 l 1
 764 -25 l 1
 658 188 l 1
 496 25 l 1
 425 -46 l 1
 404 -25 l 1
 404 -25 404 -21 403 -15 c 0
 401 -1 395 26 373 52 c 1
 339 80 280 104 185 104 c 0
 151 104 116 75 102 61 c 2
 95 54 l 1
 74 75 l 1
 74 75 75 76 77 78 c 2
 148 149 l 2
 159 160 191 190 225 195 c 1
 225 530 l 2
 222 530 218 529 215 529 c 0
 189 529 167 554 124 554 c 0
 96 554 71 537 54 522 c 2
 35 504 l 1
 14 525 l 1
 14 525 17 529 22 534 c 2
 93 605 l 2
 94 606 l 0
 109 621 140 646 174 646 c 0xf740
 217 646 239 621 265 621 c 0xef40
 299 621 325 646 326 646 c 2xf740
 347 625 l 1
 276 554 l 2xef40
 275 554 268 547 255 540 c 1
 255 196 l 1
 349 192 402 164 433 133 c 2
 454 112 l 2
 455 112 l 0
 472 94 482 75 488 60 c 1
 644 216 l 1
 644 545 l 1
 614 575 l 1
 685 646 l 1
 715 616 l 1
 736 595 l 1
 766 565 l 1
 736 535 l 1
 736 266 l 1
 842 53 l 1
 1004 216 l 1
 1004 335 l 1xf740
 989 338 968 346 953 361 c 2
 932 382 l 2
 922 392 914 406 914 425 c 0
 914 456 940 491 969 520 c 0
 970 521 l 2
 1041 592 l 2
 1072 623 1105 646 1105 646 c 1
 1126 625 l 1xf780
365 204 m 1
 344 225 l 1
 344 515 l 1
 475 646 l 1xf7
 496 625 l 1
 436 565 l 1
 436 275 l 1
 365 204 l 1
EndSplineSet
EndChar
StartChar: X
Encoding: 88 88 56
Width: 720
Flags: MW
AnchorPoint: "abvmark" 360 700 basechar 0
LayerCount: 4
Fore
SplineSet
120 275 m 25
 120 275 187 325 240 325 c 27
 335 325 385 300 480 300 c 27
 533 300 600 350 600 350 c 1049
660 60 m 25
 600 0 l 17
 150 600 l 9
 90 540 l 1049
60 60 m 25
 120 0 l 17
 570 600 l 9
 630 540 l 1049
EndSplineSet
EndChar
StartChar: Y
Encoding: 89 89 57
Width: 840
Flags: MW
AnchorPoint: "abvmark" 540 700 basechar 0
LayerCount: 4
Fore
SplineSet
60 550 m 1
 60 550 101 600 149 600 c 3
 192 600 214 575 240 575 c 3
 274 575 300 600 301 600 c 1025
390 250 m 1
 390 540 l 1
 450 600 l 1025
120 100 m 17
 120 100 166 150 210 150 c 3
 449 150 450 0 450 0 c 1
 690 240 l 1025
60 -200 m 17
 60 -200 79 -150 300 -150 c 3
 494 -150 570 -200 570 -200 c 9
 690 -80 l 1
 690 570 l 1025
660 600 m 25
 720 540 l 1049
EndSplineSet
Layer: 2
SplineSet
240 550 m 5
 240 175 l 1029
EndSplineSet
EndChar
StartChar: Z
Encoding: 90 90 58
Width: 840
Flags: MW
AnchorPoint: "blwmark" 360 0 basechar 0
AnchorPoint: "abvmark" 420 700 basechar 0
LayerCount: 4
Fore
SplineSet
180 275 m 25
 180 275 247 325 300 325 c 27
 395 325 445 300 540 300 c 27
 593 300 660 350 660 350 c 1049
750 120 m 1
 630 0 l 1
 630 0 538 50 240 50 c 3
 152 50 60 0 60 0 c 1
 720 600 l 1
 720 600 617 550 540 550 c 3
 288 550 120 600 120 600 c 1025
EndSplineSet
EndChar
StartChar: bracketleft
Encoding: 91 91 59
Width: 360
Flags: MW
LayerCount: 4
Fore
SplineSet
300 700 m 25
 120 700 l 25
 120 -150 l 25
 300 -150 l 1033
EndSplineSet
EndChar
StartChar: backslash
Encoding: 92 92 60
Width: 600
Flags: MW
LayerCount: 4
Fore
SplineSet
540 -150 m 25
 60 700 l 1049
EndSplineSet
EndChar
StartChar: bracketright
Encoding: 93 93 61
Width: 360
Flags: W
HStem: -196 92<85 194> 654 92<85 194>
VStem: 194 92<-104 654>
LayerCount: 2
Back
SplineSet
60 700 m 25
 240 700 l 25
 240 -150 l 25
 60 -150 l 1033
EndSplineSet
Fore
SplineSet
14 675 m 1
 85 746 l 1
 265 746 l 1
 286 725 l 1
 286 -125 l 1
 215 -196 l 1
 35 -196 l 1
 14 -175 l 1
 85 -104 l 1
 194 -104 l 1
 194 654 l 1
 35 654 l 1
 14 675 l 1
EndSplineSet
EndChar
StartChar: asciicircum
Encoding: 94 94 62
Width: 720
Flags: W
HStem: 626 20G<365 405>
LayerCount: 2
Back
SplineSet
120 300 m 25
 360 600 l 25
 600 300 l 1049
EndSplineSet
Fore
SplineSet
95 254 m 1
 74 275 l 1
 314 575 l 1
 385 646 l 1
 406 625 l 1
 646 325 l 1
 575 254 l 1
 554 275 l 1
 340 543 l 1
 166 325 l 1
 95 254 l 1
EndSplineSet
EndChar
StartChar: b
Encoding: 98 98 66
Width: 480
Flags: MW
AnchorPoint: "blwmark" 240 0 basechar 0
AnchorPoint: "abvmark" 240 700 basechar 0
LayerCount: 4
Fore
SplineSet
90 625 m 25
 150 565 l 1049
120 595 m 9
 120 120 l 25
 240 0 l 25
 360 120 l 25
 360 280 l 25
 240 400 l 1
 120 280 l 1049
EndSplineSet
EndChar
StartChar: c
Encoding: 99 99 67
Width: 420
Flags: MW
AnchorPoint: "blwmark" 240 0 basechar 0
AnchorPoint: "abvmark" 240 500 basechar 0
LayerCount: 4
Fore
SplineSet
360 280 m 9
 240 400 l 25
 120 280 l 25
 120 120 l 25
 240 0 l 25
 360 120 l 1041
EndSplineSet
EndChar
StartChar: e
Encoding: 101 101 69
Width: 420
Flags: MW
AnchorPoint: "blwmark" 240 0 basechar 0
AnchorPoint: "abvmark" 240 500 basechar 0
LayerCount: 4
Fore
SplineSet
360 120 m 9
 240 0 l 25
 120 80 l 25
 120 280 l 25
 240 400 l 25
 360 320 l 1
 120 80 l 1025
EndSplineSet
EndChar
StartChar: g
Encoding: 103 103 71
Width: 480
Flags: MW
AnchorPoint: "abvmark" 270 500 basechar 0
LayerCount: 4
Fore
SplineSet
60 -200 m 17
 60 -200 104 -150 150 -150 c 8
 175 -150 243 -200 270 -200 c 24
 296 -200 360 -150 360 -150 c 9
 360 400 l 1
 360 400 336 352 300 352 c 24
 264 352 240 400 240 400 c 1
 120 280 l 25
 120 120 l 25
 240 0 l 25
 360 120 l 1041
EndSplineSet
EndChar
StartChar: i
Encoding: 105 105 73
Width: 240
Flags: MW
AnchorPoint: "blwmark" 120 0 basechar 0
LayerCount: 4
Fore
SplineSet
120 660 m 25
 180 600 l 25
 120 540 l 1049
90 60 m 25
 150 0 l 25
 210 60 l 1049
150 340 m 25
 90 400 l 25
 30 340 l 1049
120 370 m 9
 120 30 l 1025
EndSplineSet
Substitution2: "Dotless forms-1" dotlessi
EndChar
StartChar: j
Encoding: 106 106 74
Width: 240
Flags: MW
LayerCount: 4
Fore
SplineSet
120 660 m 25
 180 600 l 25
 120 540 l 1049
150 340 m 25
 90 400 l 25
 30 340 l 1049
120 370 m 1
 120 -90 l 9
 60 -150 l 1049
EndSplineSet
Substitution2: "Dotless forms-1" dotlessj
EndChar
StartChar: l
Encoding: 108 108 76
Width: 240
Flags: MW
AnchorPoint: "blwmark" 120 0 basechar 0
AnchorPoint: "abvmark" 120 700 basechar 0
LayerCount: 4
Fore
SplineSet
90 60 m 25
 150 0 l 25
 210 60 l 1049
90 625 m 25
 150 565 l 1049
120 595 m 9
 120 30 l 1049
EndSplineSet
EndChar
StartChar: m
Encoding: 109 109 77
Width: 720
Flags: MW
AnchorPoint: "blwmark" 360 0 basechar 0
AnchorPoint: "abvmark" 360 500 basechar 0
LayerCount: 4
Fore
SplineSet
570 60 m 25
 630 0 l 1049
600 30 m 1
 600 310 l 25
 510 400 l 1
 360 250 l 1049
330 60 m 25
 390 0 l 1049
360 30 m 1
 360 310 l 25
 270 400 l 1
 120 250 l 1049
90 60 m 25
 150 0 l 1049
150 340 m 25
 90 400 l 1049
120 370 m 9
 120 30 l 1025
EndSplineSet
Substitution2: "Stylistic alternates-1" m.alt
EndChar
StartChar: n
Encoding: 110 110 78
Width: 480
Flags: MW
AnchorPoint: "blwmark" 240 0 basechar 0
AnchorPoint: "abvmark" 240 500 basechar 0
LayerCount: 4
Fore
SplineSet
330 60 m 25
 390 0 l 1049
360 30 m 1
 360 310 l 25
 270 400 l 1
 120 250 l 1049
90 60 m 25
 150 0 l 1049
150 340 m 25
 90 400 l 1049
120 370 m 9
 120 30 l 1025
EndSplineSet
Substitution2: "Stylistic alternates-1" n.alt
EndChar
StartChar: p
Encoding: 112 112 80
Width: 480
Flags: MW
AnchorPoint: "abvmark" 240 500 basechar 0
LayerCount: 4
Fore
SplineSet
60 0 m 1
 60 0 115 60 150 60 c 0
 185 60 240 0 240 0 c 9
 360 120 l 1
 360 280 l 25
 240 400 l 1
 120 280 l 1049
90 400 m 25
 150 340 l 1049
120 370 m 1
 120 -150 l 1025
EndSplineSet
EndChar
StartChar: r
Encoding: 114 114 82
Width: 360
Flags: MW
AnchorPoint: "blwmark" 180 0 basechar 0
AnchorPoint: "abvmark" 180 500 basechar 0
LayerCount: 4
Fore
SplineSet
300 340 m 25
 240 400 l 25
 120 280 l 1049
90 60 m 25
 150 0 l 1049
90 400 m 25
 150 340 l 1049
120 370 m 9
 120 30 l 1025
EndSplineSet
EndChar
StartChar: s
Encoding: 115 115 83
Width: 480
Flags: MW
AnchorPoint: "blwmark" 240 0 basechar 0
AnchorPoint: "abvmark" 240 500 basechar 0
LayerCount: 4
Fore
SplineSet
420 400 m 17
 420 400 358 340 330 340 c 24
 270 340 240 400 240 400 c 9
 120 280 l 1
 120 240 l 1
 360 160 l 1
 360 120 l 1
 240 0 l 17
 240 0 180 60 150 60 c 24
 120 60 60 0 60 0 c 1025
EndSplineSet
EndChar
StartChar: u
Encoding: 117 117 85
Width: 480
Flags: MW
AnchorPoint: "blwmark" 240 0 basechar 0
AnchorPoint: "abvmark" 240 500 basechar 0
LayerCount: 4
Fore
SplineSet
150 340 m 25
 90 400 l 1049
450 60 m 25
 390 0 l 1
 360 30 l 17
 360 370 l 1025
390 340 m 25
 330 400 l 1049
120 370 m 25
 120 90 l 1
 210 0 l 25
 360 150 l 1049
EndSplineSet
EndChar
StartChar: v
Encoding: 118 118 86
Width: 480
Flags: MW
AnchorPoint: "blwmark" 240 0 basechar 0
LayerCount: 4
Fore
SplineSet
150 340 m 25
 90 400 l 1049
120 370 m 25
 120 120 l 1
 240 0 l 25
 360 120 l 1
 360 370 l 17
 360 370 300 423 300 472 c 8
 300 521 364 550 366 550 c 1033
EndSplineSet
Substitution2: "Dotless forms-1" v.alt
EndChar
StartChar: w
Encoding: 119 119 87
Width: 720
Flags: MW
AnchorPoint: "blwmark" 360 0 basechar 0
LayerCount: 4
Fore
SplineSet
385 350 m 25
 335 400 l 1049
360 375 m 25
 360 120 l 1
 480 0 l 25
 600 120 l 1
 600 370 l 17
 600 370 540 423 540 472 c 8
 540 512 604 550 604 550 c 1033
145 350 m 25
 95 400 l 1049
120 375 m 25
 120 120 l 1
 240 0 l 25
 360 120 l 1025
EndSplineSet
Substitution2: "Dotless forms-1" w.alt
EndChar
StartChar: x
Encoding: 120 120 88
Width: 480
Flags: W
HStem: -46 21G<75 115 315 355> 179 42<339.335 366> 426 20G<125 165 365 405> 426 20G<125 165 365 405>
AnchorPoint: "blwmark" 240 0 basechar 0
AnchorPoint: "abvmark" 240 500 basechar 0
LayerCount: 2
Back
SplineSet
90 175 m 25
 90 175 146 225 180 225 c 24
 233 225 247 175 300 175 c 24
 334 175 390 225 391 225 c 1049
240 280 m 9
 360 400 l 25
 420 340 l 1049
240 120 m 9
 360 0 l 1
 420 60 l 1049
60 340 m 25
 120 400 l 25
 240 280 l 25
 240 120 l 25
 120 0 l 25
 60 60 l 1049
EndSplineSet
Fore
SplineSet
35 294 m 1xe0
 14 315 l 1
 145 446 l 1
 265 326 l 1
 385 446 l 1
 466 365 l 1
 395 294 l 1
 335 354 l 1
 286 305 l 1
 286 231 l 1
 297 225 309 221 325 221 c 0
 359 221 415 271 416 271 c 2
 437 250 l 1
 366 179 l 2
 365 179 329 147 297 134 c 1
 385 46 l 1
 445 106 l 1
 466 85 l 1
 335 -46 l 1
 215 74 l 1
 95 -46 l 1
 14 35 l 1
 85 106 l 1
 145 46 l 1
 194 95 l 1
 194 169 l 1
 183 175 171 179 155 179 c 0
 121 179 65 129 65 129 c 1
 44 150 l 1
 115 221 l 1
 115 221 151 253 183 266 c 1
 95 354 l 1
 35 294 l 1xe0
EndSplineSet
EndChar
StartChar: y
Encoding: 121 121 89
Width: 480
Flags: W
HStem: -246 92<240.899 297.5> -196 92<117.486 177.562> -46 21G<195 235> 426 20G<95 135 335 375> 426 20G<95 135 335 375>
VStem: 74 92<145 335> 314 92<-125 53 95 335>
AnchorPoint: "abvmark" 240 500 basechar 0
LayerCount: 2
Back
SplineSet
150 340 m 25
 90 400 l 1049
390 340 m 25
 330 400 l 1049
60 -200 m 17
 60 -200 104 -150 150 -150 c 8
 175 -150 243 -200 270 -200 c 24
 296 -200 360 -150 360 -150 c 1
 360 370 l 1025
360 120 m 9
 240 0 l 25
 120 120 l 1
 120 370 l 1049
EndSplineSet
Fore
SplineSet
35 -246 m 1xa6
 14 -225 l 1
 14 -225 16 -222 19 -219 c 2
 90 -149 l 2
 90 -148 l 0
 104 -134 139 -104 175 -104 c 0x66
 200 -104 268 -154 295 -154 c 0xa6
 300 -154 308 -152 314 -149 c 1
 314 53 l 1
 215 -46 l 1
 74 95 l 1
 74 345 l 1
 44 375 l 1
 115 446 l 1
 145 416 l 1
 155 405 l 1
 196 365 l 1
 166 335 l 1
 166 145 l 1
 265 46 l 1
 314 95 l 1
 314 345 l 1
 284 375 l 1
 355 446 l 1
 385 416 l 1
 406 395 l 1
 436 365 l 1
 406 335 l 1
 406 145 l 1
 406 -125 l 1
 335 -196 l 1x76
 335 -196 271 -246 245 -246 c 0xa6
 218 -246 150 -196 125 -196 c 0x66
 93 -196 63 -220 47 -235 c 2
 35 -246 l 1xa6
EndSplineSet
EndChar
StartChar: z
Encoding: 122 122 90
Width: 420
Flags: MW
AnchorPoint: "abvmark" 180 500 basechar 0
LayerCount: 4
Fore
SplineSet
60 400 m 17
 60 400 97 340 150 340 c 0
 184 340 240 400 240 400 c 1
 300 340 l 1
 120 200 l 1
 300 100 l 1
 300 -150 l 1
 300 -150 244 -200 210 -200 c 0
 172 -200 115 -150 90 -150 c 16
 44 -150 0 -200 0 -200 c 1025
EndSplineSet
EndChar
StartChar: braceleft
Encoding: 123 123 91
Width: 360
Flags: MW
LayerCount: 4
Fore
SplineSet
300 700 m 25
 180 580 l 1
 180 370 l 25
 60 250 l 25
 180 200 l 25
 180 -100 l 1
 300 -150 l 1049
EndSplineSet
EndChar
StartChar: asciitilde
Encoding: 126 126 94
Width: 840
Flags: MW
LayerCount: 4
Fore
SplineSet
120 275 m 17
 120 275 187 325 240 325 c 27
 380 325 460 300 600 300 c 27
 653 300 720 350 720 350 c 1033
EndSplineSet
EndChar
StartChar: exclamdown
Encoding: 161 161 200
Width: 360
Flags: MW
LayerCount: 4
Fore
SplineSet
210 340 m 25
 150 400 l 1049
210 -140 m 1
 210 -140 193 -116 192 -100 c 24
 182 17 180 200 180 200 c 1
 180 200 176 17 168 -100 c 24
 166 -139 150 -200 150 -200 c 9
 210 -140 l 1
EndSplineSet
EndChar
StartChar: sterling
Encoding: 163 163 203
Width: 660
Flags: MW
LayerCount: 4
Fore
SplineSet
481 600 m 1
 480 600 454 575 420 575 c 3
 394 575 372 600 329 600 c 3
 281 600 240 550 240 550 c 1
 240 100 l 1025
600 121.200195312 m 1
 480 0 l 17
 480 0 419 50 180 50 c 3
 97 50 60 0 60 0 c 1033
120 275 m 17
 120 275 168 325 210 325 c 27
 281 325 319 300 390 300 c 27
 432 300 480 350 480 350 c 1033
EndSplineSet
EndChar
StartChar: yen
Encoding: 165 165 204
Width: 780
Flags: MW
LayerCount: 4
Fore
SplineSet
60 550 m 1
 60 550 101 600 149 600 c 3
 192 600 196 575 240 575 c 1
 240 275 l 1025
120 200 m 17
 120 200 166 250 210 250 c 3
 372 250 390 150 390 150 c 1
 570 330 l 1025
60 -200 m 17
 60 -200 79 -150 300 -150 c 3
 529 -150 450 -200 450 -200 c 9
 570 -80 l 1
 570 570 l 1025
540 600 m 25
 600 540 l 1049
180 -25 m 17
 180 -25 228 25 270 25 c 27
 410 25 490 0 630 0 c 27
 672 0 720 50 720 50 c 1033
EndSplineSet
EndChar
StartChar: brokenbar
Encoding: 166 166 205
Width: 300
Flags: MW
LayerCount: 4
Fore
SplineSet
150 -150 m 17
 150 200 l 1025
150 350 m 1
 150 700 l 1033
EndSplineSet
EndChar
StartChar: dieresis
Encoding: 168 168 101
Width: 480
Flags: W
HStem: 494 152
LayerCount: 2
Back
SplineSet
330 600 m 25
 390 540 l 1049
90 600 m 25
 150 540 l 1049
EndSplineSet
Fore
SplineSet
44 575 m 1
 115 646 l 1
 196 565 l 1
 125 494 l 1
 44 575 l 1
284 575 m 1
 355 646 l 1
 436 565 l 1
 365 494 l 1
 284 575 l 1
EndSplineSet
EndChar
StartChar: guillemotleft
Encoding: 171 171 215
Width: 660
Flags: MW
LayerCount: 4
Fore
SplineSet
570 325 m 17
 570 325 543.919921876 295.744140624 510 275 c 0
 396 207 360 200 360 200 c 1
 360 200 437 174 540 100 c 0
 565.150390624 81.732421875 600 50 600 50 c 1033
270 325 m 17
 270 325 243.919921876 295.744140624 210 275 c 0
 96 207 60 200 60 200 c 1
 60 200 137 174 240 100 c 0
 265.14976701 81.7315958294 300 50 300 50 c 1033
EndSplineSet
EndChar
StartChar: degree
Encoding: 176 176 229
Width: 600
Flags: MW
LayerCount: 4
Fore
SplineSet
120 600 m 0
 120 660 198 725 270 725 c 0
 390 725 480 650 480 550 c 0
 480 490 402 425 330 425 c 0
 210 425 120 500 120 600 c 0
EndSplineSet
EndChar
StartChar: plusminus
Encoding: 177 177 213
Width: 720
Flags: MW
LayerCount: 4
Fore
SplineSet
120 25 m 25
 600 25 l 1049
360 575 m 25
 360 175 l 1049
120 375 m 25
 600 375 l 1049
EndSplineSet
EndChar
StartChar: micro
Encoding: 181 181 209
Width: 480
Flags: MW
LayerCount: 4
Fore
SplineSet
120 375 m 1
 120 -150 l 1025
145 350 m 9
 95 400 l 1041
450 60 m 9
 390 0 l 1
 360 30 l 17
 360 375 l 1025
385 350 m 9
 335 400 l 1041
60 0 m 1
 60 0 71.9384760968 25 150 25 c 3
 223 25 240 0 240 0 c 9
 360 120 l 1025
EndSplineSet
EndChar
StartChar: paragraph
Encoding: 182 182 226
Width: 720
Flags: MW
LayerCount: 4
Fore
SplineSet
360 150 m 17
 360 150 348.13838788 100 270 100 c 3
 168 100 120 177.79076131 120 350 c 3
 120 469 170.810673948 600 329 600 c 3
 372 600 394 575 420 575 c 3
 454 575 480 600 481 600 c 1025
630 600 m 1
 570 540 l 1
 570 -75 l 1025
660 -200 m 1
 660 -200 508 -150 390 -150 c 3
 307 -150 270 -200 270 -200 c 1025
EndSplineSet
Layer: 2
SplineSet
420 550 m 5
 420 -125 l 1029
EndSplineSet
EndChar
StartChar: periodcentered
Encoding: 183 183 212
Width: 360
Flags: MW
LayerCount: 4
Fore
SplineSet
150 360 m 25
 210 300 l 1049
EndSplineSet
EndChar
StartChar: questiondown
Encoding: 191 191 201
Width: 480
Flags: MW
LayerCount: 4
Fore
SplineSet
360 -50 m 25
 360 -110 l 25
 270 -200 l 25
 120 -150 l 25
 120 -30 l 29
 240 50 l 25
 240 200 l 1049
270 340 m 25
 210 400 l 1049
EndSplineSet
EndChar
StartChar: AE
Encoding: 198 198 188
Width: 1380
Flags: MW
AnchorPoint: "blwmark" 720 0 basechar 0
AnchorPoint: "abvmark" 720 700 basechar 0
LayerCount: 4
Fore
SplineSet
630 550 m 9
 570 600 l 25
 510 550 l 1041
240 300 m 1
 240 300 276 350 360 350 c 3
 512 350 600 250 601 250 c 1025
270 575 m 1
 270 575 282 600 330 600 c 11
 389 600 420 549 420 500 c 3
 420 263 211 75 211 75 c 1025
60 0 m 1
 60 0 97 50 180 50 c 3
 298 50 330 0 330 0 c 1025
600 575 m 1
 630 300 l 1025
990 300 m 25
 990 300 1046 350 1080 350 c 27
 1122 350 1098 300 1140 300 c 3
 1189 300 1230 350 1231 350 c 1049
990 500 m 1
 990 100 l 1025
840 600 m 1
 840 600 630 480 630 300 c 3
 630 134 744 0 960 0 c 3
 1103 0 1261 150 1262 150 c 1025
840 492 m 1
 840 492 954 600 1026 600 c 3
 1103 600 1070 550 1140 550 c 3
 1198 550 1230 600 1231 600 c 1025
EndSplineSet
Layer: 2
SplineSet
840 550 m 5
 840 100 l 1029
EndSplineSet
EndChar
StartChar: germandbls
Encoding: 223 223 131
Width: 600
Flags: MW
AnchorPoint: "abvmark" 360 750 basechar 0
LayerCount: 4
Fore
SplineSet
180 400 m 1
 180 400 269 340 322 340 c 3
 411 340 420 400 420 400 c 1
 480 340 l 1
 300 200 l 1
 480 100 l 1
 480 -150 l 1
 480 -150 424.000360522 -200 390 -200 c 1
 311 -113 150 0 150 0 c 1025
-150 -200 m 17
 -150 -200 -106 -150 -60 -150 c 8
 -35 -150 33 -200 60 -200 c 24
 86 -200 150 -150 150 -150 c 1
 150 530 l 1
 270 650 l 17
 270 650 300 590 360 590 c 24
 388 590 450 650 451 650 c 1033
EndSplineSet
EndChar
StartChar: ae
Encoding: 230 230 189
Width: 660
Flags: MW
AnchorPoint: "blwmark" 360 0 basechar 0
AnchorPoint: "abvmark" 360 500 basechar 0
LayerCount: 4
Fore
SplineSet
150 220 m 17
 120 310 l 1
 210 400 l 1
 360 375 l 1
 360 150 l 9
 210 0 l 1
 120 90 l 1
 120 160 l 1
 210 250 l 1
 210 250 232.928594192 220 300 220 c 3
 360 220 l 1033
600 120 m 9
 480 0 l 25
 360 80 l 25
 360 280 l 25
 480 400 l 25
 600 320 l 1
 360 80 l 1025
EndSplineSet
EndChar
StartChar: eth
Encoding: 240 240 181
Width: 480
Flags: MW
AnchorPoint: "blwmark" 240 0 basechar 0
AnchorPoint: "abvmark" 300 700 basechar 0
LayerCount: 4
Fore
SplineSet
300 610 m 1
 140 450 l 1025
360 280 m 1
 240 400 l 25
 120 280 l 1
 120 120 l 25
 240 0 l 25
 360 120 l 1
 360 450 l 10
 360 510 293 550 240 550 c 0
 187 550 120 549 120 600 c 27
 120 633 180 670 169 650 c 1049
EndSplineSet
EndChar
StartChar: hbar
Encoding: 295 295 964
Width: 480
Flags: MW
AnchorPoint: "abvmark" 240 700 basechar 0
AnchorPoint: "blwmark" 240 0 basechar 0
LayerCount: 4
Fore
SplineSet
330 60 m 25
 390 0 l 1049
90 60 m 25
 150 0 l 1049
90 625 m 25
 150 565 l 1049
120 595 m 9
 120 30 l 1049
360 30 m 25
 360 310 l 25
 270 400 l 1
 120 250 l 1049
240 475 m 25
 30 475 l 1049
EndSplineSet
EndChar
StartChar: dotlessi
Encoding: 305 305 97
Width: 240
Flags: MW
AnchorPoint: "blwmark" 120 0 basechar 0
AnchorPoint: "abvmark" 120 500 basechar 0
LayerCount: 4
Fore
SplineSet
90 60 m 25
 150 0 l 25
 210 60 l 1049
150 340 m 25
 90 400 l 25
 30 340 l 1049
120 370 m 9
 120 30 l 1025
EndSplineSet
EndChar
StartChar: lslash
Encoding: 322 322 291
Width: 240
Flags: MW
LayerCount: 4
Fore
SplineSet
210 430 m 25
 30 250 l 1049
95 50 m 25
 145 0 l 25
 195 50 l 1049
95 625 m 25
 145 575 l 1049
120 600 m 9
 120 25 l 1049
EndSplineSet
EndChar
StartChar: Eng
Encoding: 330 330 599
Width: 840
Flags: MW
AnchorPoint: "abvmark" 480 700 basechar 0
LayerCount: 4
Fore
SplineSet
60 550 m 1
 60 550 101 600 149 600 c 3
 192 600 214 575 240 575 c 3
 274 575 300 600 301 600 c 1025
60 0 m 17
 60 0 97 50 180 50 c 3
 298 50 330 0 330 0 c 1
 390 60 l 1
 390 540 l 1
 450 600 l 1
 690 475 l 1
 690 -80 l 1
 570 -200 l 1
 570 -200 494 -150 300 -150 c 3
 79 -150 60 -200 60 -200 c 1033
EndSplineSet
Layer: 2
SplineSet
240 550 m 5
 240 75 l 1029
EndSplineSet
EndChar
StartChar: eng
Encoding: 331 331 600
Width: 480
Flags: MW
AnchorPoint: "abvmark" 240 500 basechar 0
LayerCount: 4
Fore
SplineSet
120 244 m 25
 270 394 l 1
 360 304 l 1
 360 -150 l 1
 360 -150 304 -200 270 -200 c 0
 232 -200 175 -150 150 -150 c 16
 104 -150 60 -200 60 -200 c 1033
90 60 m 25
 150 0 l 1049
150 334 m 25
 90 394 l 1049
120 364 m 9
 120 30 l 1025
EndSplineSet
EndChar
StartChar: OE
Encoding: 338 338 116
Width: 1500
Flags: MW
AnchorPoint: "blwmark" 720 0 basechar 0
AnchorPoint: "abvmark" 780 700 basechar 0
LayerCount: 4
Fore
SplineSet
1110 300 m 25
 1110 300 1166 350 1200 350 c 27
 1242 350 1218 300 1260 300 c 3
 1309 300 1350 350 1351 350 c 1049
1110 500 m 1
 1110 100 l 1025
960 600 m 1
 960 600 750 480 750 300 c 3
 750 134 864 0 1080 0 c 3
 1223 0 1381 150 1382 150 c 1025
960 492 m 1
 960 492 1074 600 1146 600 c 3
 1223 600 1190 550 1260 550 c 3
 1318 550 1350 600 1351 600 c 1025
482 550 m 1
 480 100 l 1025
330 600 m 1
 330 600 120 480 120 300 c 3
 120 134 234 0 450 0 c 3
 593 0 754 142 754 300 c 3
 754 512 643 600 510 600 c 3
 406 600 330 492 330 492 c 1025
EndSplineSet
Layer: 2
SplineSet
960 550 m 5
 960 100 l 1029
330 550 m 5
 330 100 l 1029
EndSplineSet
EndChar
StartChar: oe
Encoding: 339 339 115
Width: 660
Flags: MW
AnchorPoint: "blwmark" 360 0 basechar 0
AnchorPoint: "abvmark" 360 500 basechar 0
LayerCount: 4
Fore
SplineSet
600 120 m 9
 480 0 l 25
 360 80 l 25
 360 280 l 25
 480 400 l 25
 600 320 l 1
 360 80 l 1025
240 400 m 25
 120 280 l 25
 120 120 l 25
 240 0 l 25
 360 120 l 25
 360 280 l 25
 240 400 l 25
EndSplineSet
EndChar
StartChar: longs
Encoding: 383 383 95
Width: 360
Flags: MW
AnchorPoint: "abvmark" 210 700 basechar 0
LayerCount: 4
Fore
SplineSet
-150 -200 m 17
 -150 -200 -106 -150 -60 -150 c 8
 -35 -150 33 -200 60 -200 c 24
 86 -200 150 -150 150 -150 c 1
 150 530 l 1
 270 650 l 17
 270 650 300 590 360 590 c 24
 388 590 450 650 451 650 c 1033
EndSplineSet
EndChar
StartChar: hv
Encoding: 405 405 514
Width: 720
Flags: MW
AnchorPoint: "blwmark" 360 0 basechar 0
AnchorPoint: "abvmark" 360 700 basechar 0
LayerCount: 4
Fore
SplineSet
606 550 m 17
 604 550 540 521 540 472 c 16
 540 423 600 370 600 370 c 9
 600 120 l 1
 480 0 l 25
 360 120 l 1
 360 310 l 25
 270 400 l 1
 120 250 l 1049
90 60 m 25
 150 0 l 1049
90 625 m 25
 150 565 l 1049
120 595 m 9
 120 30 l 1049
EndSplineSet
EndChar
StartChar: HV
Encoding: 502 502 513
Width: 1080
Flags: MW
AnchorPoint: "blwmark" 570 0 basechar 0
AnchorPoint: "abvmark" 600 700 basechar 0
LayerCount: 4
Fore
SplineSet
60 550 m 1
 60 550 101 600 149 600 c 3
 192 600 214 575 240 575 c 3
 274 575 300 600 301 600 c 1025
450 225 m 1
 600 375 l 1
 660 315 l 1
 660 60 l 1
 750 0 l 1
 930 181.200195312 l 1
 930 378 l 1
 930 378 840 382.799804688 840 450 c 3
 840 516 960 600 960 600 c 1025
450 600 m 1
 390 540 l 1
 390 60 l 1
 330 0 l 1
 330 0 298 50 180 50 c 3
 97 50 60 0 60 0 c 1033
EndSplineSet
Layer: 2
SplineSet
240 550 m 5
 240 75 l 1029
EndSplineSet
EndChar
StartChar: dotlessj
Encoding: 567 567 98
Width: 240
Flags: MW
AnchorPoint: "abvmark" 120 500 basechar 0
LayerCount: 4
Fore
SplineSet
145 350 m 25
 95 400 l 25
 45 350 l 1049
120 375 m 1
 120 -90 l 9
 60 -150 l 1049
EndSplineSet
EndChar
StartChar: ascript
Encoding: 593 593 348
Width: 480
Flags: MW
AnchorPoint: "blwmark" 240 0 basechar 0
AnchorPoint: "abvmark" 270 500 basechar 0
LayerCount: 4
Fore
SplineSet
450 60 m 25
 390 0 l 1
 360 30 l 1
 360 400 l 1
 360 400 334 352 300 352 c 0
 266 352 240 400 240 400 c 9
 120 280 l 1
 120 90 l 17
 210 0 l 1
 360 150 l 1049
EndSplineSet
EndChar
StartChar: Rsmallcap
Encoding: 640 640 854
Width: 540
Flags: MW
AnchorPoint: "blwmark" 270 0 basechar 0
AnchorPoint: "abvmark" 240 500 basechar 0
LayerCount: 4
Fore
SplineSet
90 60 m 25
 150 0 l 1049
90 400 m 25
 150 340 l 1049
120 370 m 9
 120 30 l 1025
480 60 m 25
 420 0 l 1
 420 0 399 85 360 125 c 24
 337 149 270 150 270 150 c 1025
240 120 m 1
 420 300 l 1
 240 400 l 1
 120 280 l 1049
EndSplineSet
EndChar
StartChar: circumflex
Encoding: 710 710 100
Width: 480
Flags: MW
LayerCount: 4
Fore
SplineSet
360 525 m 25
 360 525 240 600 240 700 c 1
 240 550 120 525 120 525 c 1025
EndSplineSet
EndChar
StartChar: breve
Encoding: 728 728 265
Width: 480
Flags: MW
LayerCount: 4
Fore
SplineSet
120 600 m 17
 120 600 137.55499552 525 270 525 c 3
 324 525 390 600 390 600 c 1033
EndSplineSet
EndChar
StartChar: dotaccent
Encoding: 729 729 269
Width: 480
Flags: MW
LayerCount: 4
Fore
SplineSet
215 610 m 25
 265 560 l 1049
EndSplineSet
EndChar
StartChar: ogonek
Encoding: 731 731 283
Width: 480
Flags: MW
LayerCount: 4
Fore
SplineSet
240 0 m 25
 150 -90 l 1
 150 -150 l 9
 270 -200 l 25
 330 -140 l 1049
EndSplineSet
EndChar
StartChar: tilde
Encoding: 732 732 168
Width: 480
Flags: W
HStem: 479 21G<15 38> 504 92<217.551 360.675> 529 92<119.328 262.449>
LayerCount: 2
Back
SplineSet
60 525 m 17
 60 525 108 575 150 575 c 27
 221 575 259 550 330 550 c 27
 372 550 420 600 420 600 c 1033
EndSplineSet
Fore
SplineSet
35 479 m 1xa0
 14 500 l 1
 14 500 14 500 15 501 c 2
 86 572 l 2
 93 579 137 621 175 621 c 0xa0
 246 621 284 596 355 596 c 0
 392 596 433 635 442 644 c 2
 445 646 l 1
 466 625 l 2
 466 625 466 625 465 624 c 2
 394 553 l 2
 387 546 343 504 305 504 c 0xc0
 234 504 196 529 125 529 c 0
 88 529 48 491 38 481 c 2
 35 479 l 1xa0
EndSplineSet
EndChar
StartChar: hungarumlaut
Encoding: 733 733 267
Width: 480
Flags: MW
LayerCount: 4
Fore
SplineSet
420 700 m 17
 420 600 270 525 270 525 c 1049
240 700 m 17
 240 600 90 525 90 525 c 1049
EndSplineSet
EndChar
StartChar: ringbelow
Encoding: 755 755 886
Width: 480
Flags: MW
LayerCount: 4
Fore
SplineSet
120 -150 m 0
 120 -90 138 -75 210 -75 c 0
 300 -75 360 -125 360 -200 c 0
 360 -260 342 -275 270 -275 c 0
 180 -275 120 -225 120 -150 c 0
EndSplineSet
EndChar
StartChar: hookcmb
Encoding: 777 777 381
Width: 0
Flags: MW
AnchorPoint: "abvmark" -240 500 mark 0
LayerCount: 4
Fore
SplineSet
-240 500 m 1
 -120 620 l 1
 -120 675 l 1
 -270 700 l 25
 -360 610 l 1
 -330 550 l 1049
EndSplineSet
EndChar
StartChar: dotbelowcmb
Encoding: 803 803 357
Width: 0
VWidth: 400
Flags: MW
AnchorPoint: "blwmark" -240 0 mark 0
LayerCount: 4
Fore
SplineSet
-265 -100 m 25
 -215 -150 l 1049
EndSplineSet
EndChar
StartChar: breveinvertedbelowcmb
Encoding: 815 815 537
Width: 0
VWidth: 400
Flags: W
HStem: -171 92<-273.174 -161.797>
AnchorPoint: "blwmark" -240 0 mark 0
LayerCount: 2
Back
SplineSet
-90 -200 m 17
 -90 -200 -107.5546875 -125 -240 -125 c 3
 -294 -125 -360 -200 -360 -200 c 1033
EndSplineSet
Fore
SplineSet
-115 -246 m 1
 -136 -225 l 1
 -136 -225 -138 -214 -147 -202 c 1
 -169 -185 -206 -171 -265 -171 c 0
 -299 -171 -337 -200 -361 -222 c 2
 -385 -246 l 1
 -406 -225 l 1
 -406 -225 -402 -220 -395 -213 c 2
 -324 -142 l 2
 -303 -121 -256 -79 -215 -79 c 0
 -144 -79 -106 -100 -86 -120 c 2
 -65 -142 l 2
 -48 -159 -44 -175 -44 -175 c 1
 -115 -246 l 1
EndSplineSet
EndChar
StartChar: tridotright
Encoding: 4347 4347 895
Width: 600
Flags: MW
LayerCount: 4
Fore
SplineSet
450 205 m 25
 510 145 l 1049
150 350 m 25
 210 290 l 1049
150 60 m 25
 210 0 l 1049
EndSplineSet
EndChar
StartChar: Germandbls
Encoding: 7838 7838 136
Width: 840
Flags: MW
AnchorPoint: "abvmark" 480 700 basechar 0
LayerCount: 4
Fore
SplineSet
60 0 m 17
 60 0 97 50 180 50 c 3
 298 50 330 0 330 0 c 1
 390 60 l 1
 390 540 l 1
 450 600 l 1
 720 475 l 1
 720 395 l 1
 600 275 l 9
 720 225 l 25
 720 -110 l 25
 630 -200 l 1
 599 -160 500.505859376 -110 420 -110 c 3
 265.80476195 -110 210 -200 210 -200 c 1025
60 550 m 1
 60 550 101 600 149 600 c 3
 192 600 214 575 240 575 c 3
 274 575 300 600 301 600 c 1025
EndSplineSet
Layer: 2
SplineSet
240 550 m 5
 240 75 l 1029
EndSplineSet
EndChar
StartChar: figuredash
Encoding: 8210 8210 908
Width: 480
Flags: MW
LayerCount: 4
Fore
SplineSet
120 200 m 25
 360 200 l 1049
EndSplineSet
EndChar
StartChar: emdash
Encoding: 8212 8212 258
Width: 720
Flags: MW
LayerCount: 4
Fore
SplineSet
60 200 m 25
 660 200 l 1049
EndSplineSet
EndChar
StartChar: horizontalbar
Encoding: 8213 8213 909
Width: 840
Flags: MW
LayerCount: 4
Fore
SplineSet
60 200 m 25
 780 200 l 1049
EndSplineSet
EndChar
StartChar: quoteleft
Encoding: 8216 8216 254
Width: 360
Flags: MW
LayerCount: 4
Fore
SplineSet
210 415 m 25
 150 475 l 1
 150 535 l 25
 240 625 l 1049
EndSplineSet
EndChar
StartChar: quoteright
Encoding: 8217 8217 255
Width: 360
Flags: MW
LayerCount: 4
Fore
SplineSet
150 610 m 25
 210 550 l 1
 210 490 l 25
 120 400 l 1049
EndSplineSet
EndChar
StartChar: quotesinglbase
Encoding: 8218 8218 256
Width: 360
VWidth: 450
Flags: MW
LayerCount: 4
Fore
SplineSet
150 60 m 25
 210 0 l 1
 210 -60 l 25
 120 -150 l 1049
EndSplineSet
EndChar
StartChar: quotereversed
Encoding: 8219 8219 928
Width: 360
Flags: MW
LayerCount: 4
Layer: 3
SplineSet
210 610 m 25
 150 550 l 1
 150 490 l 25
 240 400 l 1049
EndSplineSet
EndChar
StartChar: quotedblleft
Encoding: 8220 8220 251
Width: 600
Flags: MW
LayerCount: 4
Fore
SplineSet
210 415 m 25
 150 475 l 1
 150 535 l 25
 240 625 l 1049
450 415 m 25
 390 475 l 1
 390 535 l 25
 480 625 l 1049
EndSplineSet
EndChar
StartChar: quotedblright
Encoding: 8221 8221 252
Width: 600
Flags: MW
LayerCount: 4
Fore
SplineSet
390 610 m 25
 450 550 l 1
 450 490 l 25
 360 400 l 1049
150 610 m 25
 210 550 l 1
 210 490 l 25
 120 400 l 1049
EndSplineSet
EndChar
StartChar: quotedblbase
Encoding: 8222 8222 253
Width: 600
VWidth: 450
Flags: MW
LayerCount: 4
Fore
SplineSet
390 60 m 25
 450 0 l 1
 450 -60 l 25
 360 -150 l 1049
150 60 m 25
 210 0 l 1
 210 -60 l 25
 120 -150 l 1049
EndSplineSet
EndChar
StartChar: quotedblrev
Encoding: 8223 8223 929
Width: 600
Flags: MW
LayerCount: 4
Layer: 3
SplineSet
210 610 m 25
 150 550 l 1
 150 490 l 25
 240 400 l 1049
450 610 m 25
 390 550 l 1
 390 490 l 25
 480 400 l 1049
EndSplineSet
EndChar
StartChar: dagger
Encoding: 8224 8224 262
Width: 480
Flags: MW
LayerCount: 4
Fore
SplineSet
65 390 m 25
 115 340 l 25
 370 390 l 25
 420 340 l 1049
210 540 m 1
 210 540 226 455 228 400 c 24
 238 186 240 -150 240 -150 c 1
 240 -150 244 186 252 400 c 24
 256 478 270 600 270 600 c 9
 210 540 l 1
EndSplineSet
EndChar
StartChar: daggerdbl
Encoding: 8225 8225 263
Width: 480
Flags: MW
LayerCount: 4
Fore
SplineSet
65 50 m 25
 115 0 l 25
 370 50 l 25
 420 0 l 1049
65 390 m 25
 115 340 l 25
 370 390 l 25
 420 340 l 1049
210 540 m 1
 210 540 227 516 228 500 c 24
 238 383 240 200 240 200 c 1
 240 200 244 383 252 500 c 24
 254 539 270 600 270 600 c 9
 210 540 l 1
270 -140 m 1
 270 -140 253 -116 252 -100 c 24
 242 17 240 200 240 200 c 1
 240 200 236 17 228 -100 c 24
 226 -139 210 -200 210 -200 c 9
 270 -140 l 1
EndSplineSet
EndChar
StartChar: guilsinglleft
Encoding: 8249 8249 242
Width: 360
Flags: MW
LayerCount: 4
Fore
SplineSet
270 325 m 17
 270 325 243.919921876 295.744140624 210 275 c 0
 96 207 60 200 60 200 c 1
 60 200 137 174 240 100 c 0
 265.14976701 81.7315958294 300 50 300 50 c 1033
EndSplineSet
EndChar
StartChar: guilsinglright
Encoding: 8250 8250 243
Width: 360
Flags: W
VStem: 14 332
LayerCount: 2
Back
SplineSet
90 325 m 17
 90 325 116.080078125 295.744140624 150 275 c 0
 264 207 300 200 300 200 c 1
 300 200 223 174 120 100 c 0
 94.849609375 81.732421875 60 50 60 50 c 1033
EndSplineSet
Fore
SplineSet
115 371 m 1
 131 354 l 2
 142 344 158 332 175 321 c 0
 248 278 289 259 309 251 c 0
 320 247 325 246 325 246 c 1
 346 225 l 1
 275 154 l 1
 275 154 272 153 265 150 c 0
 241 140 176 112 95 54 c 0
 70 36 35 4 35 4 c 1
 14 25 l 1
 85 96 l 1
 85 96 120 128 145 146 c 0
 166 161 186 174 204 185 c 1
 183 196 157 210 125 229 c 0
 102 243 83 261 73 271 c 2
 52 292 l 2
 47 297 44 300 44 300 c 1
 115 371 l 1
EndSplineSet
EndChar
StartChar: refmark
Encoding: 8251 8251 953
Width: 720
Flags: MW
LayerCount: 4
Fore
SplineSet
600 500 m 25
 120 100 l 1049
120 500 m 25
 600 100 l 1049
570 350 m 25
 630 290 l 1049
300 135 m 25
 360 75 l 1049
360 525 m 25
 420 465 l 1049
90 310 m 25
 150 250 l 1049
EndSplineSet
EndChar
StartChar: bracketquillleft
Encoding: 8261 8261 916
Width: 360
Flags: MW
LayerCount: 4
Fore
SplineSet
300 300 m 25
 120 300 l 1049
300 700 m 25
 120 700 l 25
 120 -150 l 25
 300 -150 l 1033
EndSplineSet
EndChar
StartChar: bracketquillright
Encoding: 8262 8262 917
Width: 360
Flags: W
HStem: -196 92<85 194> 254 92<85 194> 654 92<85 194>
VStem: 194 92<-104 254 346 654>
LayerCount: 2
Back
SplineSet
60 300 m 25
 240 300 l 1049
60 700 m 25
 240 700 l 25
 240 -150 l 25
 60 -150 l 1033
EndSplineSet
Fore
SplineSet
14 675 m 1
 85 746 l 1
 265 746 l 1
 286 725 l 1
 286 325 l 1
 286 -125 l 1
 215 -196 l 1
 35 -196 l 1
 14 -175 l 1
 85 -104 l 1
 194 -104 l 1
 194 254 l 1
 35 254 l 1
 14 275 l 1
 85 346 l 1
 194 346 l 1
 194 654 l 1
 35 654 l 1
 14 675 l 1
EndSplineSet
EndChar
StartChar: et
Encoding: 8266 8266 960
Width: 480
Flags: W
HStem: -196 21G<135 175> 304 92<175.404 320.989> 426 20G<95 187 385 465> 426 20G<95 187 385 465>
VStem: 134 92<-125 20.8126>
LayerCount: 2
Back
SplineSet
90 400 m 1
 90 400 164 350 270 350 c 3
 335 350 420 400 420 400 c 1
 420 400 180 176 180 -100 c 3
 180 -150 l 1025
EndSplineSet
Fore
SplineSet
44 375 m 1xe8
 115 446 l 1
 115 446 189 396 295 396 c 0
 360 396 445 446 445 446 c 1
 466 425 l 1
 450 409 l 2
 397 354 226 158 226 -75 c 2
 226 -125 l 1
 155 -196 l 1
 134 -175 l 1
 134 -125 l 2
 134 69 252 238 323 321 c 1
 299 312 270 304 245 304 c 0
 139 304 65 354 65 354 c 1
 44 375 l 1xe8
EndSplineSet
EndChar
StartChar: lozengedot
Encoding: 8280 8280 899
Width: 720
Flags: MW
LayerCount: 4
Fore
SplineSet
510 205 m 25
 570 145 l 1049
330 60 m 25
 390 0 l 1049
330 350 m 25
 390 290 l 1049
150 205 m 25
 210 145 l 1049
EndSplineSet
EndChar
StartChar: dotcross
Encoding: 8284 8284 954
Width: 720
Flags: MW
LayerCount: 4
Fore
SplineSet
360 550 m 25
 360 50 l 1049
60 300 m 25
 660 300 l 1049
510 475 m 25
 570 415 l 1049
510 185 m 25
 570 125 l 1049
150 475 m 25
 210 415 l 1049
150 185 m 25
 210 125 l 1049
EndSplineSet
EndChar
StartChar: Euro
Encoding: 8364 8364 264
Width: 660
Flags: MW
LayerCount: 4
Fore
SplineSet
60 225 m 25
 420 225 l 1049
60 375 m 25
 480 375 l 1049
570 525 m 9
 420 600 l 25
 180 360 l 25
 180 100 l 25
 420 0 l 25
 600 180 l 1041
EndSplineSet
EndChar
StartChar: minus
Encoding: 8722 8722 214
Width: 720
Flags: W
HStem: 254 92<145 575>
LayerCount: 2
Back
SplineSet
120 300 m 25
 600 300 l 1049
EndSplineSet
Fore
SplineSet
74 275 m 1
 145 346 l 1
 625 346 l 1
 646 325 l 1
 575 254 l 1
 95 254 l 1
 74 275 l 1
EndSplineSet
EndChar
StartChar: therefore
Encoding: 8756 8756 896
Width: 720
Flags: MW
LayerCount: 4
Fore
SplineSet
515 50 m 25
 565 0 l 1049
335 350 m 25
 385 300 l 1049
155 50 m 25
 205 0 l 1049
EndSplineSet
EndChar
StartChar: because
Encoding: 8757 8757 897
Width: 720
Flags: W
LayerCount: 2
Back
SplineSet
510 350 m 25
 570 290 l 1049
150 350 m 25
 210 290 l 1049
330 60 m 25
 390 0 l 1049
EndSplineSet
Fore
SplineSet
284 35 m 1
 355 106 l 1
 436 25 l 1
 365 -46 l 1
 284 35 l 1
104 325 m 1
 175 396 l 1
 256 315 l 1
 185 244 l 1
 104 325 l 1
464 325 m 1
 535 396 l 1
 616 315 l 1
 545 244 l 1
 464 325 l 1
EndSplineSet
EndChar
StartChar: proportion
Encoding: 8759 8759 898
Width: 720
Flags: MW
LayerCount: 4
Fore
SplineSet
510 350 m 25
 570 290 l 1049
510 60 m 25
 570 0 l 1049
150 350 m 25
 210 290 l 1049
150 60 m 25
 210 0 l 1049
EndSplineSet
EndChar
StartChar: bracketangleright
Encoding: 9297 9297 931
Width: 480
Flags: W
HStem: -196 21G<15 55>
LayerCount: 2
Back
SplineSet
90 675 m 17
 90 675 186.56640625 553.8359375 210 525 c 0
 264 459 420 250 420 250 c 1
 420 250 235 60 180 0 c 0
 160.16796875 -22.12890625 60 -150 60 -150 c 1033
EndSplineSet
Fore
SplineSet
115 721 m 1
 136 700 l 1
 136 700 233 579 256 550 c 0
 310 484 466 275 466 275 c 1
 466 275 281 85 226 25 c 0
 206 3 106 -125 106 -125 c 1
 35 -196 l 1
 14 -175 l 1
 14 -175 114 -47 134 -25 c 0
 189 35 374 225 374 225 c 1
 374 225 218 434 164 500 c 0
 141 529 44 650 44 650 c 1
 115 721 l 1
EndSplineSet
EndChar
StartChar: FleuronRight
Encoding: 10087 10087 956
Width: 960
Flags: MW
LayerCount: 4
Fore
SplineSet
60 150 m 25
 90 200 l 25
 390 300 l 1049
210 0 m 25
 180 25 l 25
 210 475 l 25
 180 500 l 1049
900 350 m 1
 900 350 746.400390625 25 540 25 c 3
 448.799804688 25 360 74 360 150 c 27
 360 212 510 250 510 250 c 1
 510 250 360 288 360 350 c 27
 360 405 421.200195312 450 480 450 c 3
 567.599609375 450 607.200195312 386 660 325 c 8
 694.799804688 285 691.200195312 225 750 225 c 3
 800.400390625 225 900 350 900 350 c 1
EndSplineSet
Colour: ffff00
EndChar
StartChar: bracketwhiteright
Encoding: 10215 10215 919
Width: 480
Flags: MW
LayerCount: 4
Fore
SplineSet
60 700 m 25
 360 700 l 25
 360 -150 l 25
 60 -150 l 1033
EndSplineSet
Layer: 2
SplineSet
210 650 m 25
 210 -100 l 1049
EndSplineSet
EndChar
StartChar: ruslst
Encoding: 11789 11789 903
Width: 360
Flags: MW
LayerCount: 4
Fore
SplineSet
60 450 m 25
 300 700 l 1049
EndSplineSet
EndChar
StartChar: rlslst
Encoding: 11804 11804 904
Width: 360
Flags: MW
LayerCount: 4
Fore
SplineSet
60 100 m 25
 300 -150 l 1049
EndSplineSet
EndChar
StartChar: llslst
Encoding: 11805 11805 905
Width: 360
Flags: MW
LayerCount: 4
Fore
SplineSet
60 -150 m 25
 300 100 l 1049
EndSplineSet
EndChar
StartChar: barquillleft
Encoding: 11808 11808 920
Width: 360
Flags: MW
LayerCount: 4
Fore
SplineSet
300 300 m 25
 120 300 l 1049
120 700 m 25
 120 -150 l 1049
EndSplineSet
EndChar
StartChar: barquillright
Encoding: 11809 11809 921
Width: 360
Flags: MW
LayerCount: 4
Fore
SplineSet
60 300 m 25
 240 300 l 1049
240 700 m 25
 240 -150 l 1049
EndSplineSet
EndChar
StartChar: bracketbottomleft
Encoding: 11812 11812 924
Width: 360
Flags: MW
LayerCount: 4
Fore
SplineSet
120 300 m 1
 120 -150 l 9
 300 -150 l 1033
EndSplineSet
EndChar
StartChar: fivedots
Encoding: 11821 11821 935
Width: 720
Flags: W
LayerCount: 2
Back
SplineSet
330 205 m 25
 390 145 l 1049
540 205 m 25
 600 145 l 1049
330 35 m 25
 390 -25 l 1049
330 375 m 25
 390 315 l 1049
120 205 m 25
 180 145 l 1049
EndSplineSet
Fore
SplineSet
74 180 m 1
 145 251 l 1
 226 170 l 1
 155 99 l 1
 74 180 l 1
284 350 m 1
 355 421 l 1
 436 340 l 1
 365 269 l 1
 284 350 l 1
284 10 m 1
 355 81 l 1
 436 -0 l 1
 365 -71 l 1
 284 10 l 1
494 180 m 1
 565 251 l 1
 646 170 l 1
 575 99 l 1
 494 180 l 1
284 180 m 1
 355 251 l 1
 436 170 l 1
 365 99 l 1
 284 180 l 1
EndSplineSet
EndChar
StartChar: a_a
Encoding: 42803 42803 336
Width: 720
Flags: W
HStem: 179 92<237.369 314 477.369 554> 426 20G<215 355 455 595> 426 20G<215 355 455 595>
VStem: 314 92<125 179 271 333> 554 92<46.1399 83 125 179 271 333>
AnchorPoint: "abvmark" 360 500 basechar 0
AnchorPoint: "blwmark" 360 0 basechar 0
LayerCount: 2
Back
SplineSet
360 310 m 1
 450 400 l 1
 600 375 l 1
 600 30 l 1
 630 0 l 1
 690 60 l 1049
600 150 m 25
 450 0 l 1
 360 90 l 1
 360 160 l 1
 450 250 l 1
 450 250 472.927734376 225 540 225 c 3
 600 225 l 1033
150 220 m 17
 120 310 l 1
 210 400 l 1
 360 375 l 1
 360 150 l 9
 210 0 l 1
 120 90 l 1
 120 160 l 1
 210 250 l 1
 210 250 232.928594192 225 300 225 c 3
 360 225 l 1033
EndSplineSet
Fore
SplineSet
119 180 m 1xd8
 104 195 l 1
 74 285 l 1
 235 446 l 1
 385 421 l 1
 406 400 l 1
 406 377 l 1
 475 446 l 1
 625 421 l 1
 646 400 l 1
 646 250 l 1
 646 175 l 1
 646 55 l 2
 646 51 652 49 655 46 c 2
 715 106 l 1
 736 85 l 1
 605 -46 l 1
 554 5 l 1
 554 83 l 1
 425 -46 l 1
 314 65 l 1
 314 83 l 1
 185 -46 l 1
 74 65 l 1
 74 135 l 1
 119 180 l 1xd8
193 254 m 1
 235 296 l 1
 235 295 l 2
 239 291 261 273 314 271 c 1
 314 285 l 1
 314 333 l 1
 185 354 l 1
 166 335 l 1
 193 254 l 1
314 179 m 1
 275 179 l 2
 212 179 189 201 186 204 c 2
 185 204 l 1
 166 185 l 1
 166 115 l 1
 235 46 l 1
 314 125 l 1
 314 135 l 1
 314 179 l 1
406 175 m 1
 406 115 l 1
 475 46 l 1
 554 125 l 1
 554 179 l 1
 515 179 l 2
 452 179 429 201 426 204 c 2
 425 204 l 1
 406 185 l 1
 406 175 l 1
406 227 m 1
 475 296 l 1
 475 295 l 2
 479 291 501 273 554 271 c 1
 554 333 l 1
 425 354 l 1
 406 335 l 1
 406 227 l 1
EndSplineSet
LCarets2: 1 360 
Ligature2: "Historic ligatures-1" a a
EndChar
StartChar: a_u
Encoding: 42807 42807 344
Width: 720
Flags: W
HStem: 179 92<237.369 314> 426 20G<215 355 575 615> 426 20G<215 355 575 615>
VStem: 314 92<125 179 271 333> 554 92<55 83 125 335>
AnchorPoint: "blwmark" 360 0 basechar 0
AnchorPoint: "abvmark" 360 500 basechar 0
LayerCount: 2
Back
SplineSet
360 150 m 9
 210 0 l 1
 120 90 l 1
 120 160 l 1
 210 250 l 1
 210 250 232.928594192 225 300 225 c 3
 360 225 l 1033
690 60 m 25
 630 0 l 1
 600 30 l 17
 600 370 l 1025
630 340 m 25
 570 400 l 1049
600 150 m 25
 450 0 l 25
 360 90 l 1
 360 375 l 17
 210 400 l 1
 120 310 l 1
 150 220 l 1033
EndSplineSet
Fore
SplineSet
715 106 m 1xd8
 736 85 l 1
 605 -46 l 1
 554 5 l 1
 554 83 l 1
 425 -46 l 1
 314 65 l 1
 314 83 l 1
 185 -46 l 1
 74 65 l 1
 74 135 l 1
 119 180 l 1
 104 195 l 1
 74 285 l 1
 235 446 l 1
 385 421 l 1
 406 400 l 1
 406 250 l 1
 406 175 l 1
 406 115 l 1
 475 46 l 1
 554 125 l 1
 554 345 l 1
 524 375 l 1
 595 446 l 1
 625 416 l 1
 646 395 l 1
 676 365 l 1
 646 335 l 1
 646 175 l 1
 646 55 l 1
 655 46 l 1
 715 106 l 1xd8
314 125 m 1
 314 179 l 1
 275 179 l 2
 212 179 189 201 186 204 c 2
 185 204 l 1
 166 185 l 1
 166 115 l 1
 235 46 l 1
 314 125 l 1
314 271 m 1
 314 333 l 1
 185 354 l 2
 185 354 168 337 166 335 c 2
 193 254 l 1
 235 296 l 1
 235 295 l 2
 239 291 261 273 314 271 c 1
EndSplineSet
LCarets2: 1 360 
Ligature2: "Historic ligatures-1" a u
EndChar
StartChar: a_y
Encoding: 42813 42813 346
Width: 720
Flags: MW
AnchorPoint: "abvmark" 360 500 basechar 0
LayerCount: 4
Fore
SplineSet
360 150 m 9
 210 0 l 1
 120 90 l 1
 120 160 l 1
 210 250 l 1
 210 250 232.928594192 225 300 225 c 3
 360 225 l 1033
625 350 m 25
 575 400 l 1049
300 -200 m 17
 300 -200 344 -150 390 -150 c 8
 441 -150 459 -200 510 -200 c 24
 550 -200 600 -150 600 -150 c 1
 600 375 l 1025
600 120 m 9
 480 0 l 25
 360 120 l 1
 360 375 l 17
 210 400 l 1
 120 310 l 1
 150 220 l 1033
EndSplineSet
LCarets2: 1 360 
Ligature2: "Historic ligatures-1" a y
EndChar
StartChar: kslash
Encoding: 42819 42819 863
Width: 480
Flags: W
HStem: 451 20G<335 375> 651 20G<95 134.512>
VStem: 74 92<65 198 259 560> 314 92<65 123 165 167>
AnchorPoint: "abvmark" 240 700 basechar 0
AnchorPoint: "blwmark" 240 0 basechar 0
LayerCount: 2
Back
SplineSet
450 280 m 25
 270 100 l 1049
330 425 m 25
 390 365 l 1049
90 625 m 25
 150 565 l 1049
90 625 m 25
 150 565 l 1049
120 200 m 1
 360 350 l 9
 360 395 l 1049
240 275 m 1
 360 200 l 1
 360 30 l 1025
330 60 m 25
 390 0 l 1049
90 60 m 25
 150 0 l 1049
90 625 m 25
 150 565 l 1049
120 595 m 9
 120 30 l 1049
EndSplineSet
Fore
SplineSet
284 400 m 1
 355 471 l 1
 385 441 l 1
 406 420 l 1
 436 390 l 1
 365 319 l 1
 358 327 l 1
 335 304 l 1
 314 290 l 1
 385 246 l 1
 390 241 l 1
 475 326 l 1
 496 305 l 1
 406 215 l 1
 406 55 l 1
 436 25 l 1
 365 -46 l 1
 335 -16 l 1
 314 5 l 1
 284 35 l 1
 314 65 l 1
 314 123 l 1
 245 54 l 1
 224 75 l 1
 314 165 l 1
 314 167 l 1
 215 229 l 1
 166 198 l 1
 166 55 l 1
 196 25 l 1
 125 -46 l 1
 74 5 l 1
 44 35 l 1
 74 65 l 1
 74 175 l 1
 74 570 l 1
 44 600 l 1
 115 671 l 1
 155 630 l 1
 166 620 l 1
 196 590 l 1
 166 560 l 1
 166 259 l 1
 314 352 l 1
 314 370 l 1
 284 400 l 1
EndSplineSet
EndChar
StartChar: kbarslash
Encoding: 42821 42821 864
Width: 480
Flags: MW
AnchorPoint: "abvmark" 240 700 basechar 0
AnchorPoint: "blwmark" 240 0 basechar 0
LayerCount: 4
Fore
SplineSet
330 425 m 25
 390 365 l 1049
90 625 m 25
 150 565 l 1049
90 625 m 25
 150 565 l 1049
120 200 m 1
 360 350 l 9
 360 395 l 1049
240 275 m 1
 360 200 l 1
 360 30 l 1025
330 60 m 25
 390 0 l 1049
90 60 m 25
 150 0 l 1049
90 625 m 25
 150 565 l 1049
120 595 m 9
 120 30 l 1049
240 475 m 25
 30 475 l 1049
450 280 m 25
 270 100 l 1049
EndSplineSet
EndChar
StartChar: lbroken
Encoding: 42823 42823 574
Width: 420
Flags: MW
LayerCount: 4
Fore
SplineSet
270 60 m 25
 330 0 l 25
 390 60 l 1049
90 625 m 25
 150 565 l 1049
120 595 m 1
 120 220 l 1
 300 400 l 1
 300 30 l 1025
EndSplineSet
EndChar
StartChar: lbar
Encoding: 42825 42825 865
Width: 240
Flags: MW
AnchorPoint: "abvmark" 120 700 basechar 0
AnchorPoint: "blwmark" 120 0 basechar 0
LayerCount: 4
Fore
SplineSet
95 50 m 25
 145 0 l 25
 195 50 l 1049
95 625 m 25
 145 575 l 1049
120 600 m 9
 120 25 l 1049
210 475 m 25
 30 475 l 1049
EndSplineSet
EndChar
StartChar: oeloop
Encoding: 42829 42829 867
Width: 660
Flags: MW
AnchorPoint: "abvmark" 360 500 basechar 0
AnchorPoint: "blwmark" 360 0 basechar 0
LayerCount: 4
Fore
SplineSet
360 80 m 9
 360 280 l 1
 480 400 l 25
 600 320 l 1
 360 80 l 9
240 400 m 25
 120 280 l 25
 120 120 l 25
 240 0 l 25
 360 120 l 25
 360 280 l 25
 240 400 l 25
EndSplineSet
EndChar
StartChar: o_o
Encoding: 42831 42831 669
Width: 720
Flags: MW
AnchorPoint: "blwmark" 360 0 basechar 0
AnchorPoint: "abvmark" 360 500 basechar 0
LayerCount: 4
Fore
SplineSet
480 400 m 25
 360 280 l 25
 360 120 l 25
 480 0 l 25
 600 120 l 25
 600 280 l 25
 480 400 l 25
240 400 m 25
 120 280 l 25
 120 120 l 25
 240 0 l 25
 360 120 l 25
 360 280 l 25
 240 400 l 25
EndSplineSet
LCarets2: 1 360 
Ligature2: "Historic ligatures-1" o o
EndChar
StartChar: pbar
Encoding: 42833 42833 868
Width: 480
Flags: MW
AnchorPoint: "abvmark" 240 500 basechar 0
LayerCount: 4
Fore
SplineSet
60 50 m 1
 60 50 115 100 150 100 c 0
 247 100 300 0 300 0 c 9
 360 60 l 1
 360 280 l 25
 240 400 l 1
 120 280 l 1049
90 400 m 25
 150 340 l 1049
120 370 m 1
 120 -150 l 1025
240 -75 m 25
 30 -75 l 1049
EndSplineSet
EndChar
StartChar: pflourish
Encoding: 42835 42835 869
Width: 600
Flags: MW
AnchorPoint: "abvmark" 360 500 basechar 0
LayerCount: 4
Fore
SplineSet
240 280 m 25
 360 400 l 1
 480 280 l 25
 480 120 l 1
 360 0 l 1
 360 0 278 100 30 100 c 1
 30 100 90 44 90 0 c 3
 90 -132 30 -150 30 -150 c 1033
210 400 m 25
 270 340 l 1049
240 370 m 1
 240 -150 l 1025
EndSplineSet
EndChar
StartChar: psquirrel
Encoding: 42837 42837 870
Width: 600
Flags: MW
AnchorPoint: "abvmark" 360 500 basechar 0
LayerCount: 4
Fore
SplineSet
240 280 m 25
 360 400 l 1
 480 280 l 25
 480 120 l 1
 360 0 l 1
 360 0 358 50 30 50 c 1
 30 50 90 156 90 200 c 3
 90 332 30 400 30 400 c 1033
215 400 m 25
 265 350 l 1049
240 375 m 1
 240 -150 l 1025
EndSplineSet
EndChar
StartChar: rrotunda
Encoding: 42843 42843 96
Width: 360
Flags: W
HStem: 426 20G<125 169> 426 20G<125 169>
VStem: 14 332
AnchorPoint: "blwmark" 180 0 basechar 0
AnchorPoint: "abvmark" 180 500 basechar 0
LayerCount: 2
Back
SplineSet
300 60 m 25
 240 0 l 1
 120 180 l 25
 240 300 l 1
 120 400 l 1
 60 340 l 1049
EndSplineSet
Fore
SplineSet
325 106 m 1xa0
 346 85 l 1
 215 -46 l 1
 194 -25 l 1
 74 155 l 1
 192 273 l 1
 95 354 l 2
 95 354 41 300 35 294 c 1
 14 315 l 1
 145 446 l 1
 265 346 l 1
 286 325 l 1
 166 205 l 1
 269 50 l 1
 325 106 l 1xa0
EndSplineSet
EndChar
StartChar: vslash
Encoding: 42847 42847 873
Width: 480
Flags: MW
LayerCount: 4
Fore
SplineSet
150 340 m 25
 90 400 l 1049
120 370 m 25
 120 120 l 1
 240 0 l 25
 360 120 l 1
 360 370 l 17
 360 370 300 423 300 472 c 8
 300 521 364 550 366 550 c 1033
270 390 m 25
 30 150 l 1049
EndSplineSet
EndChar
StartChar: y_y
Encoding: 42849 42849 834
Width: 720
Flags: MW
AnchorPoint: "abvmark" 360 500 basechar 0
LayerCount: 4
Fore
SplineSet
385 350 m 25
 335 400 l 1049
625 350 m 25
 575 400 l 1049
60 -200 m 17
 60 -200 104 -150 150 -150 c 8
 292 -150 368 -200 510 -200 c 24
 550 -200 600 -150 600 -150 c 1
 600 375 l 1025
600 120 m 9
 480 0 l 25
 360 120 l 1
 360 375 l 1049
145 350 m 25
 95 400 l 1049
360 120 m 9
 240 0 l 25
 120 120 l 1
 120 375 l 1049
EndSplineSet
LCarets2: 1 360 
Ligature2: "Historic ligatures-1" y y
EndChar
StartChar: Vend
Encoding: 42856 42856 971
Width: 840
Flags: W
AnchorPoint: "abvmark" 480 700 basechar 0
LayerCount: 4
Fore
SplineSet
300 0 m 1
 720 420 l 1
 720 540 l 1
 660 600 l 1025
450 600 m 1
 390 540 l 1
 390 -150 l 1
 330 -200 l 1
 330 -200 298 -150 180 -150 c 3
 97 -150 60 -200 60 -200 c 1033
60 550 m 1
 60 550 101 600 149 600 c 3
 192 600 214 575 240 575 c 3
 274 575 300 600 301 600 c 1025
EndSplineSet
Layer: 2
SplineSet
240 550 m 5
 240 -125 l 1029
EndSplineSet
EndChar
StartChar: vend
Encoding: 42857 42857 876
Width: 480
Flags: MW
AnchorPoint: "abvmark" 240 500 basechar 0
LayerCount: 4
Fore
SplineSet
60 -50 m 9
 360 250 l 1
 360 340 l 25
 300 400 l 1025
90 400 m 25
 150 340 l 1049
120 370 m 1
 120 -150 l 1025
EndSplineSet
EndChar
StartChar: is
Encoding: 42861 42861 957
Width: 540
Flags: MW
LayerCount: 4
Fore
SplineSet
-150 -200 m 17
 -150 -200 -106 -150 -60 -150 c 8
 -9 -150 9 -200 60 -200 c 24
 100 -200 150 -150 150 -150 c 1
 150 530 l 1
 270 650 l 25
 390 530 l 25
 390 470 l 25
 0 50 l 1049
EndSplineSet
EndChar
StartChar: con
Encoding: 42863 42863 890
Width: 480
Flags: W
HStem: -196 21G<255 295> 426 20G<245 285> 426 20G<245 285>
VStem: 74 92<99.5798 255> 314 92<-65 300.42>
LayerCount: 2
Back
SplineSet
300 -150 m 25
 360 -90 l 1
 360 280 l 9
 240 400 l 1
 120 280 l 25
 120 120 l 25
 240 0 l 1049
EndSplineSet
Fore
SplineSet
275 -196 m 1xd8
 254 -175 l 1
 314 -115 l 1
 314 255 l 2
 314 308 244 325 215 354 c 1
 166 305 l 1
 166 145 l 2
 166 92 236 75 265 46 c 2
 286 25 l 1
 215 -46 l 1
 74 95 l 1
 74 255 l 1
 265 446 l 1
 406 305 l 1
 406 -65 l 1
 275 -196 l 1xd8
EndSplineSet
EndChar
StartChar: lum
Encoding: 42866 42866 573
Width: 510
Flags: MW
LayerCount: 4
Fore
SplineSet
270 225 m 1
 330 200 l 1
 330 200 330 139 330 100 c 27
 330 3 150 -150 150 -150 c 1025
450 50 m 17
 450 50 427 0 360 0 c 3
 247 0 210 60 210 60 c 9
 150 0 l 25
 90 60 l 1025
90 625 m 25
 150 565 l 1049
120 595 m 9
 120 30 l 1049
EndSplineSet
EndChar
StartChar: mum
Encoding: 42867 42867 587
Width: 990
Flags: MW
LayerCount: 4
Fore
SplineSet
600 30 m 1
 600 310 l 25
 510 400 l 1
 360 250 l 1041
330 60 m 9
 390 0 l 1041
360 30 m 1
 360 310 l 25
 270 400 l 1
 120 250 l 1041
90 60 m 9
 150 0 l 1041
150 340 m 9
 90 400 l 1041
120 370 m 9
 120 30 l 1025
750 225 m 1
 810 200 l 1
 810 200 810 139 810 100 c 27
 810 3 630 -150 630 -150 c 1025
930 50 m 17
 930 50 907 0 840 0 c 3
 727 0 690 60 690 60 c 9
 630 0 l 25
 570 60 l 1025
EndSplineSet
EndChar
StartChar: num
Encoding: 42868 42868 597
Width: 750
Flags: MW
LayerCount: 4
Fore
SplineSet
510 225 m 1
 570 200 l 1
 570 200 570 139 570 100 c 27
 570 3 390 -150 390 -150 c 1025
690 50 m 17
 690 50 667 0 600 0 c 3
 487 0 450 60 450 60 c 1
 390 0 l 25
 330 60 l 1025
360 30 m 1
 360 310 l 25
 270 400 l 1
 120 250 l 1049
90 60 m 25
 150 0 l 1049
150 340 m 25
 90 400 l 1049
120 370 m 9
 120 30 l 1025
EndSplineSet
EndChar
StartChar: rum
Encoding: 42869 42869 704
Width: 540
Flags: MW
LayerCount: 4
Fore
SplineSet
300 525 m 1
 360 500 l 1
 360 500 360 406 360 250 c 3
 360 -37.5015230616 180 -150 180 -150 c 1025
480 400 m 17
 480 400 457 350 390 350 c 3
 277 350 240 400 240 400 c 9
 120 280 l 1025
90 60 m 25
 150 0 l 1049
90 400 m 25
 150 340 l 1049
120 370 m 9
 120 30 l 1025
EndSplineSet
EndChar
StartChar: Rumsmallcap
Encoding: 42870 42870 858
Width: 780
Flags: MW
LayerCount: 4
Fore
SplineSet
540 225 m 1
 600 200 l 1
 600 200 600 139 600 100 c 27
 600 3 420 -150 420 -150 c 1025
720 50 m 17
 720 50 697 0 630 0 c 3
 517 0 480 60 480 60 c 9
 420 0 l 1
 420 0 399 85 360 125 c 24
 337 149 270 150 270 150 c 1025
90 60 m 25
 150 0 l 1049
90 400 m 25
 150 340 l 1049
120 370 m 9
 120 30 l 1025
240 120 m 1
 420 300 l 1
 240 400 l 1
 120 280 l 1049
EndSplineSet
EndChar
StartChar: tum
Encoding: 42871 42871 728
Width: 720
Flags: MW
LayerCount: 4
Fore
SplineSet
60 400 m 1049,0,0
150 550 m 1,0,0
 150 60 l 1,0,0
 210 0 l 1,0,0
 330 120 l 1025,0,0
480 525 m 1,0,0
 540 500 l 1,0,0
 540 500 540 406 540 250 c 3,0,0
 540 -37.501953125 360 -150 360 -150 c 1025,0,0
660 400 m 1,0,0
 660 400 622 350 420 350 c 3,0,0
 208 350 60 400 60 400 c 1025,0,0
EndSplineSet
EndChar
StartChar: um
Encoding: 42872 42872 958
Width: 480
Flags: W
HStem: -196 21G<75 115> 426 20G<245 285 422.778 465> 426 20G<245 285 422.778 465>
VStem: 74 92<-125 -11.2344>
LayerCount: 2
Back
SplineSet
120 -150 m 1
 120 -150 120 -58 120 0 c 3
 120 141 420 400 420 400 c 1
 420 400 364 340 330 340 c 0
 277 340 240 400 240 400 c 9
 120 280 l 1
 120 240 l 1
 360 160 l 1
 360 120 l 1
 240 0 l 17
 240 0 180 60 150 60 c 24
 120 60 60 0 60 0 c 1025
EndSplineSet
Fore
SplineSet
289 296 m 1x90
 268 301 250 314 237 327 c 2
 216 348 l 2
 215 349 l 0
 214 350 214 351 213 352 c 2
 166 305 l 1
 166 279 l 1
 246 252 l 1
 258 265 271 278 282 289 c 2
 289 296 l 1x90
188 103 m 1
 220 91 265 46 265 46 c 1
 314 95 l 1
 314 121 l 1
 217 153 l 1
 206 136 196 119 188 103 c 1
95 -196 m 1
 74 -175 l 1
 74 -25 l 2
 74 -21 74 -16 75 -11 c 1
 54 -27 35 -46 35 -46 c 1
 14 -25 l 1
 85 46 l 1
 85 46 90 51 99 59 c 1
 114 87 134 117 156 147 c 0
 161 154 167 161 173 168 c 1
 95 194 l 1
 74 215 l 1
 74 255 l 1
 265 446 l 1
 286 425 l 1
 286 425 290 418 297 409 c 0
 312 397 333 386 355 386 c 0
 358 386 361 387 365 388 c 0
 378 392 392 400 405 410 c 0
 429 432 445 446 445 446 c 1xd0
 466 425 l 1
 466 425 464 423 460 419 c 2
 390 348 l 2
 383 341 370 329 356 318 c 0
 351 313 346 309 340 303 c 0
 328 291 314 275 301 260 c 0
 295 253 289 247 283 240 c 1
 385 206 l 1
 406 185 l 1
 406 145 l 1
 215 -46 l 1
 215 -46 191 -22 166 -4 c 1
 166 -125 l 1
 95 -196 l 1
EndSplineSet
EndChar
StartChar: hbar_longs
Encoding: 59335 59335 963
Width: 510
Flags: MW
LayerCount: 4
Fore
SplineSet
360 60 m 25
 420 0 l 1049
390 30 m 25
 390 310 l 25
 300 400 l 1
 150 250 l 1049
-150 -200 m 17
 -150 -200 -106 -150 -60 -150 c 8
 -35 -150 33 -200 60 -200 c 24
 86 -200 150 -150 150 -150 c 1
 150 530 l 1
 270 650 l 17
 270 650 300 590 360 590 c 24
 388 590 450 650 451 650 c 1033
240 475 m 25
 30 475 l 1049
EndSplineSet
LCarets2: 1 270 
Ligature2: "Historic ligatures-1" hbar longs
EndChar
StartChar: q_rrotunda
Encoding: 59571 59571 965
Width: 720
Flags: MW
LayerCount: 4
Fore
SplineSet
360 120 m 9
 240 0 l 25
 120 120 l 25
 120 280 l 25
 240 400 l 1
 240 400 264 352 300 352 c 24
 336 352 360 400 360 400 c 9
 360 -150 l 1049
660 60 m 25
 600 0 l 1
 480 180 l 25
 600 300 l 1
 480 400 l 1
 420 340 l 1049
EndSplineSet
LCarets2: 1 420 
Ligature2: "Ligatures-1" q rrotunda
EndChar
StartChar: q_etfin
Encoding: 59583 59583 966
Width: 720
Flags: MW
LayerCount: 4
Fore
SplineSet
360 120 m 9
 240 0 l 25
 120 120 l 25
 120 280 l 25
 240 400 l 1
 240 400 264 352 300 352 c 24
 336 352 360 400 360 400 c 9
 360 -150 l 1049
360 310 m 25
 450 400 l 1
 600 300 l 1
 420 120 l 1
 600 100 l 1
 600 40 l 1
 300 -200 l 1025
EndSplineSet
LCarets2: 1 360 
Ligature2: "Ligatures-1" q etfin
EndChar
StartChar: g_r
Encoding: 60112 60112 502
Width: 600
Flags: W
HStem: -246 92<240.899 297.5> -196 92<117.486 177.562> 426 20G<245 285 364.556 405 485 525> 426 20G<245 285 364.556 405 485 525>
VStem: 74 92<99.5798 255> 314 92<-125 53 95 305>
LayerCount: 2
Back
SplineSet
540 340 m 25
 480 400 l 25
 360 280 l 1049
60 -200 m 17
 60 -200 104 -150 150 -150 c 8
 175 -150 243 -200 270 -200 c 24
 296 -200 360 -150 360 -150 c 9
 360 400 l 1
 360 400 336 352 300 352 c 24
 264 352 240 400 240 400 c 1
 120 280 l 25
 120 120 l 25
 240 0 l 25
 360 120 l 1041
EndSplineSet
Fore
SplineSet
314 325 m 1x0c
 304 315 290 306 275 306 c 0
 260 306 247 315 237 325 c 2
 215 346 l 2
 215 347 l 0
 214 348 212 349 211 350 c 2
 166 305 l 1
 166 145 l 2
 166 92 236 75 265 46 c 1
 314 95 l 1
 314 255 l 1
 314 325 l 1x0c
314 53 m 1
 215 -46 l 1
 74 95 l 1
 74 255 l 1
 265 446 l 1
 286 425 l 2
 286 425 290 418 297 408 c 0
 305 403 315 398 325 398 c 0
 330 398 333 399 339 401 c 2
 385 446 l 1
 406 425 l 1
 406 347 l 1
 505 446 l 1
 586 365 l 1
 515 294 l 1
 455 354 l 1
 406 305 l 1
 406 -125 l 1
 335 -196 l 1x6c
 335 -196 271 -246 245 -246 c 0x8c
 218 -246 150 -196 125 -196 c 0x4c
 93 -196 63 -220 47 -235 c 2
 35 -246 l 1x8c
 14 -225 l 1
 14 -225 16 -222 19 -219 c 2
 90 -149 l 2
 90 -148 l 0
 104 -134 139 -104 175 -104 c 0x4c
 200 -104 268 -154 295 -154 c 0x8c
 300 -154 308 -152 314 -149 c 1
 314 53 l 1
EndSplineSet
LCarets2: 1 360 
Ligature2: "Historic ligatures-1" g r
EndChar
StartChar: q_v
Encoding: 60113 60113 967
Width: 720
Flags: MW
LayerCount: 4
Fore
SplineSet
360 120 m 9
 240 0 l 25
 120 120 l 25
 120 280 l 25
 240 400 l 1
 240 400 264 352 300 352 c 24
 336 352 360 400 360 400 c 9
 360 -150 l 1049
360 120 m 1
 480 0 l 25
 600 120 l 1
 600 370 l 17
 600 370 540 423 540 472 c 8
 540 521 604 550 606 550 c 1033
EndSplineSet
LCarets2: 1 360 
Ligature2: "Ligatures-1" q v
EndChar
StartChar: g_p
Encoding: 60114 60114 501
Width: 720
Flags: W
HStem: -246 92<240.086 300.254> -196 92<117.486 179.914> 426 20G<245 285 365 405 485 525> 426 20G<245 285 365 405 485 525>
VStem: 74 92<145 255> 314 92<-122 -10 125 305> 554 92<145 300.42>
CounterMasks: 1 0e
LayerCount: 2
Back
SplineSet
300 0 m 1
 300 0 355 60 390 60 c 0
 425 60 480 0 480 0 c 9
 600 120 l 1
 600 280 l 25
 480 400 l 1
 360 280 l 1049
60 -200 m 17
 60 -200 104 -150 150 -150 c 8
 201 -150 219 -200 270 -200 c 24
 310 -200 360 -150 360 -150 c 9
 360 400 l 1
 360 400 330 352 300 352 c 24
 270 352 240 400 240 400 c 1
 120 280 l 25
 120 120 l 25
 210 0 l 1
 360 150 l 1049
360 -150 m 9
 420 -200 l 1025
EndSplineSet
Fore
SplineSet
314 327 m 2x0e
 313 326 313 326 313 326 c 0
 302 315 288 306 275 306 c 0
 261 306 248 316 237 327 c 2
 216 348 l 1
 215 348 l 0
 214 349 214 350 213 351 c 2
 166 305 l 1
 166 145 l 1
 238 49 l 1
 314 125 l 1
 314 255 l 1
 314 327 l 2x0e
314 83 m 1
 185 -46 l 1
 164 -25 l 1
 74 95 l 1
 74 255 l 1
 265 446 l 1
 286 425 l 2
 286 425 290 418 297 409 c 0
 305 403 316 398 325 398 c 0
 330 398 335 399 341 402 c 2
 385 446 l 1
 406 425 l 1
 406 347 l 1
 505 446 l 1
 646 305 l 1
 646 145 l 1
 455 -46 l 1
 440 -30 l 2
 431 -22 419 -12 406 -3 c 1
 406 -122 l 1
 445 -154 l 1
 466 -175 l 1
 395 -246 l 1xae
 335 -196 l 1x4e
 335 -196 285 -246 245 -246 c 0x8e
 194 -246 176 -196 125 -196 c 0x4e
 93 -196 63 -220 47 -235 c 2
 35 -246 l 1x8e
 14 -225 l 1
 14 -225 16 -222 19 -219 c 2
 90 -149 l 2
 90 -148 l 0
 104 -134 139 -104 175 -104 c 0x4e
 226 -104 244 -154 295 -154 c 0x8e
 301 -154 308 -153 314 -151 c 1
 314 -10 l 1
 305 -17 297 -24 291 -30 c 2
 275 -46 l 1
 254 -25 l 1
 254 -25 256 -22 261 -17 c 2
 314 35 l 1
 314 83 l 1
406 305 m 1
 406 105 l 2
 409 106 412 106 415 106 c 0
 442 106 481 70 497 54 c 2
 505 46 l 1
 554 95 l 1
 554 255 l 2
 554 308 484 325 455 354 c 1
 406 305 l 1
EndSplineSet
LCarets2: 1 360 
Ligature2: "Historic ligatures-1" g p
EndChar
StartChar: longs_h
Encoding: 60321 60321 707
Width: 780
Flags: W
HStem: -246 92<30.0859 90.2541> -196 92<-92.514 -30.0859> 426 20G<575 615> 426 20G<575 615>
VStem: 104 92<-125 505> 374 92<65 275 317 556.7> 614 92<65 321.97>
LayerCount: 2
Back
SplineSet
630 60 m 25
 690 0 l 1049
390 60 m 25
 450 0 l 1049
660 30 m 25
 660 310 l 25
 570 400 l 1
 420 250 l 1049
-150 -200 m 17
 -150 -200 -106 -150 -60 -150 c 8
 -9 -150 9 -200 60 -200 c 24
 100 -200 150 -150 150 -150 c 1
 150 530 l 1
 270 650 l 1
 270 650 304 600 420 600 c 9
 420 30 l 1025
EndSplineSet
Fore
SplineSet
-175 -246 m 1x8e
 -196 -225 l 1
 -196 -225 -194 -222 -191 -219 c 2
 -120 -149 l 2
 -120 -148 l 0
 -106 -134 -71 -104 -35 -104 c 0x4e
 16 -104 34 -154 85 -154 c 0x8e
 91 -154 98 -153 104 -151 c 1
 104 505 l 1
 295 696 l 1
 307 684 l 2
 325 669 367 646 445 646 c 1
 466 625 l 1
 466 317 l 1
 595 446 l 1
 706 335 l 1
 706 55 l 1
 736 25 l 1
 665 -46 l 1
 635 -16 l 1
 614 5 l 1
 584 35 l 1
 614 65 l 1
 614 285 l 2
 614 322 565 334 545 354 c 1
 466 275 l 1
 466 55 l 1
 496 25 l 1
 425 -46 l 1
 395 -16 l 1
 374 5 l 1
 344 35 l 1
 374 65 l 1
 374 225 l 1
 374 555 l 1
 299 559 263 586 251 598 c 2
 245 604 l 1
 196 555 l 1
 196 -125 l 1
 125 -196 l 1x6e
 125 -196 75 -246 35 -246 c 0x8e
 -16 -246 -34 -196 -85 -196 c 0x4e
 -117 -196 -147 -220 -163 -235 c 2
 -175 -246 l 1x8e
EndSplineSet
LCarets2: 1 360 
Ligature2: "Ligatures-1" longs h
EndChar
StartChar: longs_l
Encoding: 60323 60323 330
Width: 540
GlyphClass: 3
Flags: W
HStem: -246 92<30.8994 87.5> -196 92<-92.514 -32.4385> 579 92<301.639 365>
VStem: 104 92<-125 505> 374 92<65 560>
LayerCount: 2
Back
SplineSet
-150 -200 m 17
 -150 -200 -106 -150 -60 -150 c 8
 -35 -150 33 -200 60 -200 c 24
 86 -200 150 -150 150 -150 c 1
 150 530 l 1
 270 650 l 1
 270 650 318 625 390 625 c 9
 450 565 l 1025
390 60 m 25
 450 0 l 25
 510 60 l 1049
420 595 m 9
 420 30 l 1049
EndSplineSet
Fore
SplineSet
-175 -246 m 1xb8
 -196 -225 l 1
 -196 -225 -194 -222 -191 -219 c 2
 -120 -149 l 2
 -120 -148 l 0
 -106 -134 -71 -104 -35 -104 c 0x78
 -10 -104 58 -154 85 -154 c 0xb8
 90 -154 98 -152 104 -149 c 1
 104 505 l 1
 295 696 l 1
 295 696 343 671 415 671 c 1
 445 641 l 1
 466 620 l 1
 496 590 l 1
 466 560 l 1
 466 55 l 1
 475 46 l 1
 535 106 l 1
 556 85 l 1
 425 -46 l 1
 374 5 l 1
 344 35 l 1
 374 65 l 1
 374 570 l 1
 365 579 l 1
 293 579 245 604 245 604 c 1
 196 555 l 1
 196 -125 l 1
 125 -196 l 1x78
 125 -196 61 -246 35 -246 c 0xb8
 8 -246 -60 -196 -85 -196 c 0x78
 -117 -196 -147 -220 -163 -235 c 2
 -175 -246 l 1xb8
EndSplineSet
LCarets2: 1 360 
Ligature2: "Ligatures-1" longs l
EndChar
StartChar: longs_p
Encoding: 60325 60325 709
Width: 780
Flags: MW
LayerCount: 4
Fore
SplineSet
300 0 m 1
 300 0 355 60 390 60 c 11
 454 60 540 0 540 0 c 9
 660 120 l 1
 660 280 l 25
 540 400 l 1
 420 280 l 1049
420 370 m 1
 420 -150 l 1025
-150 -200 m 17
 -150 -200 -106 -150 -60 -150 c 8
 -9 -150 9 -200 60 -200 c 24
 100 -200 150 -150 150 -150 c 1
 150 530 l 1
 270 650 l 17
 270 650 324 590 480 590 c 3
 522 590 571 650 571 650 c 9
 360 430 l 9
 450 340 l 1025
EndSplineSet
LCarets2: 1 360 
Ligature2: "Ligatures-1" longs p
EndChar
StartChar: longs_longs_l
Encoding: 60328 60328 332
Width: 780
GlyphClass: 3
Flags: MW
LayerCount: 4
Fore
SplineSet
150 -150 m 1
 187 -150 262 -200 300 -200 c 0
 334 -200 390 -150 390 -150 c 1
 390 530 l 1
 510 650 l 17
 510 650 558 625 630 625 c 1
 690 565 l 1025
-150 -200 m 17
 -150 -200 -106 -150 -60 -150 c 8
 -35 -150 33 -200 60 -200 c 24
 86 -200 150 -150 150 -150 c 1
 150 530 l 1
 270 650 l 1
 270 650 337 530 390 530 c 1025
630 60 m 25
 690 0 l 25
 750 60 l 1049
660 595 m 9
 660 30 l 1049
EndSplineSet
LCarets2: 2 360 600 
Ligature2: "Ligatures-1" longs longs l
EndChar
StartChar: h_longs
Encoding: 60333 60333 515
Width: 510
Flags: MW
LayerCount: 4
Fore
SplineSet
365 50 m 29
 415 0 l 1053
390 25 m 29
 390 310 l 25
 300 400 l 1
 150 250 l 1049
-150 -200 m 17
 -150 -200 -106 -150 -60 -150 c 8
 -35 -150 33 -200 60 -200 c 24
 86 -200 150 -150 150 -150 c 1
 150 530 l 1
 270 650 l 17
 270 650 300 590 360 590 c 24
 388 590 450 650 451 650 c 1033
EndSplineSet
LCarets2: 1 270 
Ligature2: "Historic ligatures-1" h longs
EndChar
StartChar: b_g
Encoding: 61123 61123 350
Width: 480
GlyphClass: 3
Flags: MW
LayerCount: 4
Fore
SplineSet
120 595 m 9
 120 120 l 25
 240 0 l 1
 360 120 l 25
 360 280 l 1
 240 400 l 1
 120 280 l 1049
60 -200 m 17
 60 -200 104 -150 150 -150 c 8
 175 -150 243 -200 270 -200 c 24
 296 -200 360 -150 360 -150 c 1
 360 120 l 1033
90 625 m 25
 150 565 l 1049
EndSplineSet
LCarets2: 1 240 
Ligature2: "Historic ligatures-1" b g
EndChar
StartChar: c_k
Encoding: 61124 61124 439
Width: 780
Flags: MW
LayerCount: 4
Fore
SplineSet
360 280 m 9
 240 400 l 25
 120 280 l 25
 120 120 l 25
 240 0 l 25
 360 120 l 1041
630 425 m 25
 690 365 l 1049
390 625 m 25
 450 565 l 1049
390 625 m 25
 450 565 l 1049
420 200 m 1
 660 350 l 9
 660 395 l 1049
540 275 m 1
 660 200 l 1
 660 30 l 1025
630 60 m 25
 690 0 l 1049
390 60 m 25
 450 0 l 1049
390 625 m 25
 450 565 l 1049
420 595 m 9
 420 30 l 1049
EndSplineSet
LCarets2: 1 420 
Ligature2: "Ligatures-1" c k
EndChar
StartChar: c_t
Encoding: 61125 61125 335
Width: 810
Flags: MW
LayerCount: 4
Fore
SplineSet
360 120 m 9
 240 0 l 25
 120 120 l 25
 120 300 l 1
 240 400 l 17
 240 400 324.968994112 350 480 350 c 3
 664 350 720 400 720 400 c 1033
570 550 m 1
 570 60 l 1
 630 0 l 1
 750 120 l 1025
EndSplineSet
LCarets2: 1 420 
Ligature2: "Ligatures-1" c t
EndChar
StartChar: e_y
Encoding: 61127 61127 351
Width: 720
GlyphClass: 3
Flags: MW
LayerCount: 4
Fore
SplineSet
360 120 m 9
 240 0 l 25
 120 120 l 25
 120 280 l 25
 240 400 l 25
 360 280 l 1
 -40 -80 l 1025
630 340 m 25
 570 400 l 1049
300 -200 m 17
 300 -200 344 -150 390 -150 c 8
 415 -150 483 -200 510 -200 c 24
 536 -200 600 -150 600 -150 c 1
 600 370 l 1025
600 120 m 9
 480 0 l 25
 360 120 l 1
 360 280 l 1049
EndSplineSet
LCarets2: 1 360 
Ligature2: "Historic ligatures-1" e y
EndChar
StartChar: f_j
Encoding: 61129 61129 322
Width: 540
GlyphClass: 3
Flags: MW
LayerCount: 4
Fore
SplineSet
420 370 m 1
 420 -90 l 9
 360 -150 l 1049
60 400 m 1
 390 400 l 25
 450 340 l 1025
-150 -200 m 1
 -150 -200 -106 -150 -60 -150 c 8
 -9 -150 9 -200 60 -200 c 24
 100 -200 150 -150 150 -150 c 1
 150 530 l 1
 270 650 l 1
 270 650 360 600 480 600 c 9
 420 540 l 1025
EndSplineSet
LCarets2: 1 360 
Ligature2: "Ligatures-1" f j
EndChar
StartChar: f_r
Encoding: 61130 61130 352
Width: 660
GlyphClass: 3
Flags: MW
LayerCount: 4
Fore
SplineSet
-150 -200 m 1
 -150 -200 -106 -150 -60 -150 c 8
 -35 -150 33 -200 60 -200 c 24
 86 -200 150 -150 150 -150 c 1
 150 530 l 1
 270 650 l 17
 270 650 300 590 360 590 c 24
 388 590 450 650 451 650 c 1025
60 400 m 1
 390 400 l 25
 450 340 l 1025
600 340 m 25
 540 400 l 25
 420 280 l 1049
390 60 m 25
 450 0 l 1049
420 370 m 9
 420 30 l 1025
EndSplineSet
LCarets2: 1 360 
Ligature2: "Ligatures-1" f r
EndChar
StartChar: f_t
Encoding: 61131 61131 326
Width: 630
GlyphClass: 3
Flags: MW
LayerCount: 4
Fore
SplineSet
-150 -200 m 17
 -150 -200 -106 -150 -60 -150 c 8
 -35 -150 33 -200 60 -200 c 24
 86 -200 150 -150 150 -150 c 1
 150 530 l 1
 270 650 l 1
 270 650 337 550 390 550 c 1
 390 60 l 1
 450 0 l 1
 570 120 l 1025
60 400 m 25
 540 400 l 1049
EndSplineSet
LCarets2: 1 360 
Ligature2: "Ligatures-1" f t
EndChar
StartChar: f_y
Encoding: 61133 61133 353
Width: 780
GlyphClass: 3
Flags: MW
LayerCount: 4
Fore
SplineSet
685 350 m 25
 635 400 l 1049
360 -200 m 17
 360 -200 404 -150 450 -150 c 8
 501 -150 519 -200 570 -200 c 24
 610 -200 660 -150 660 -150 c 1
 660 375 l 1025
660 120 m 9
 540 0 l 25
 420 120 l 1
 420 375 l 1049
-150 -200 m 17
 -150 -200 -106 -150 -60 -150 c 8
 -35 -150 33 -200 60 -200 c 24
 86 -200 150 -150 150 -150 c 1
 150 530 l 1
 270 650 l 17
 270 650 300 590 360 590 c 24
 388 590 450 650 451 650 c 1033
60 400 m 1
 395 400 l 25
 445 350 l 1025
EndSplineSet
LCarets2: 1 360 
Ligature2: "Ligatures-1" f y
EndChar
StartChar: f_f_t
Encoding: 61134 61134 354
Width: 870
GlyphClass: 3
Flags: W
HStem: -246 92<30.8994 87.5 256.961 327.806> -196 92<-92.514 -32.4385> 354 92<85 104 196 344 436 584 676 755>
VStem: 104 92<-115.853 354 446 505> 344 92<-125 354 446 504.446> 584 92<85 354 446 521.222>
CounterMasks: 1 1c
LayerCount: 2
Back
SplineSet
810 120 m 1
 690 0 l 1
 630 60 l 1
 630 550 l 1
 577 550 510 650 510 650 c 9
 390 530 l 1
 390 -150 l 1
 390 -150 334 -200 300 -200 c 0
 262 -200 187 -150 150 -150 c 1025
-150 -200 m 17
 -150 -200 -106 -150 -60 -150 c 8
 -35 -150 33 -200 60 -200 c 24
 86 -200 150 -150 150 -150 c 1
 150 530 l 1
 270 650 l 1
 270 650 337 530 390 530 c 1025
60 400 m 1
 780 400 l 1049
EndSplineSet
Fore
SplineSet
14 375 m 1xbc
 85 446 l 1
 104 446 l 1
 104 505 l 1
 295 696 l 1
 316 675 l 1
 316 675 341 631 371 597 c 0
 386 584 401 576 415 576 c 1
 535 696 l 1
 556 675 l 2
 556 675 571 652 593 628 c 0
 612 611 635 596 655 596 c 1
 676 575 l 1
 676 446 l 1
 805 446 l 1
 826 425 l 1
 755 354 l 1
 676 354 l 1
 676 85 l 1
 715 46 l 1
 835 166 l 1
 856 145 l 1
 665 -46 l 1
 584 35 l 1
 584 354 l 1
 436 354 l 1
 436 -125 l 1
 365 -196 l 1x7c
 365 -196 309 -246 275 -246 c 0xbc
 237 -246 162 -196 125 -196 c 1x7c
 125 -196 61 -246 35 -246 c 0xbc
 8 -246 -60 -196 -85 -196 c 0x7c
 -117 -196 -147 -220 -163 -235 c 2
 -175 -246 l 1xbc
 -196 -225 l 1
 -196 -225 -194 -222 -191 -219 c 2
 -120 -149 l 2
 -120 -148 l 0
 -106 -134 -71 -104 -35 -104 c 0x7c
 -10 -104 58 -154 85 -154 c 0
 90 -154 98 -152 104 -149 c 1
 104 354 l 1
 35 354 l 1
 14 375 l 1xbc
196 446 m 1
 344 446 l 1
 344 490 l 1
 333 495 322 504 311 515 c 0
 310 515 l 1
 289 536 l 2
 270 555 252 580 240 599 c 1
 196 555 l 1
 196 446 l 1
196 354 m 1
 196 -108 l 1
 236 -120 293 -154 325 -154 c 0xbc
 331 -154 337 -153 344 -150 c 1
 344 354 l 1
 196 354 l 1
436 446 m 1
 584 446 l 1
 584 509 l 1
 567 516 549 530 533 546 c 2
 512 567 l 1
 512 568 l 2
 501 579 490 591 482 601 c 1
 436 555 l 1
 436 446 l 1
EndSplineSet
LCarets2: 2 360 600 
Ligature2: "Ligatures-1" f f t
EndChar
StartChar: f_f_y
Encoding: 61135 61135 355
Width: 1020
GlyphClass: 3
Flags: MW
LayerCount: 4
Fore
SplineSet
930 340 m 25
 870 400 l 1049
600 -200 m 17
 600 -200 644 -150 690 -150 c 8
 715 -150 783 -200 810 -200 c 24
 836 -200 900 -150 900 -150 c 1
 900 370 l 1025
900 120 m 9
 780 0 l 25
 660 120 l 1
 660 370 l 1049
150 -150 m 1
 187 -150 262 -200 300 -200 c 0
 334 -200 390 -150 390 -150 c 1
 390 530 l 1
 510 650 l 17
 510 650 540 590 600 590 c 24
 628 590 690 650 691 650 c 1025
-150 -200 m 1
 -150 -200 -106 -150 -60 -150 c 8
 -35 -150 33 -200 60 -200 c 24
 86 -200 150 -150 150 -150 c 1
 150 530 l 1
 270 650 l 1
 270 650 337 530 390 530 c 1025
60 400 m 1
 630 400 l 25
 690 340 l 1025
EndSplineSet
LCarets2: 2 360 600 
Ligature2: "Ligatures-1" f f y
EndChar
StartChar: f_t_y
Encoding: 61136 61136 356
Width: 1020
GlyphClass: 3
Flags: MW
LayerCount: 4
Fore
SplineSet
930 340 m 25
 870 400 l 1049
600 -200 m 17
 600 -200 644 -150 690 -150 c 8
 715 -150 783 -200 810 -200 c 24
 836 -200 900 -150 900 -150 c 1
 900 370 l 1025
900 120 m 9
 780 0 l 25
 660 120 l 1
 660 370 l 1049
-150 -200 m 1
 -150 -200 -106 -150 -60 -150 c 8
 -35 -150 33 -200 60 -200 c 24
 86 -200 150 -150 150 -150 c 1
 150 530 l 1
 270 650 l 1
 270 650 337 550 390 550 c 1
 390 60 l 1
 450 0 l 1
 570 120 l 1025
60 400 m 1
 630 400 l 25
 690 340 l 1025
EndSplineSet
LCarets2: 2 360 600 
Ligature2: "Ligatures-1" f t y
EndChar
StartChar: g_d
Encoding: 61138 61138 498
Width: 480
Flags: MW
LayerCount: 4
Fore
SplineSet
360 400 m 1
 360 450 l 2
 360 504.529056756 293 550 240 550 c 0
 187 550 120 549 120 600 c 27
 120 633 180 670 169 650 c 1049
60 -200 m 17
 60 -200 104 -150 150 -150 c 8
 175 -150 243 -200 270 -200 c 24
 296 -200 360 -150 360 -150 c 9
 360 400 l 1
 360 400 336 352 300 352 c 24
 264 352 240 400 240 400 c 1
 120 280 l 25
 120 120 l 25
 240 0 l 25
 360 120 l 1041
EndSplineSet
LCarets2: 1 240 
Ligature2: "Historic ligatures-1" g d
EndChar
StartChar: p_p
Encoding: 61142 61142 689
Width: 720
Flags: MW
LayerCount: 4
Fore
SplineSet
360 -150 m 1
 360 280 l 9
 480 400 l 1
 600 280 l 25
 600 120 l 1
 480 0 l 1
 480 0 439 60 330 60 c 0
 295 60 240 0 240 0 c 1
 240 0 185 60 150 60 c 0
 115 60 60 0 60 0 c 1025
360 280 m 25
 240 400 l 1
 120 280 l 1049
95 400 m 25
 145 350 l 1049
120 375 m 1
 120 -150 l 1025
EndSplineSet
LCarets2: 1 360 
Ligature2: "Historic ligatures-1" p p
EndChar
StartChar: pfluorish_p
Encoding: 61143 61143 879
Width: 840
Flags: MW
LayerCount: 4
Fore
SplineSet
480 -150 m 1
 480 280 l 9
 600 400 l 1
 720 280 l 25
 720 120 l 1
 600 0 l 1
 600 0 559 60 450 60 c 0
 415 60 360 0 360 0 c 1
 360 0 278 100 30 100 c 1
 30 100 90 44 90 0 c 3
 90 -132 30 -150 30 -150 c 1033
480 280 m 25
 360 400 l 1
 240 280 l 1049
215 400 m 25
 265 350 l 1049
240 375 m 1
 240 -150 l 1025
EndSplineSet
LCarets2: 1 480 
Ligature2: "Ligatures-1" pflourish p
EndChar
StartChar: t_r
Encoding: 61144 61144 729
Width: 600
Flags: MW
LayerCount: 4
Fore
SplineSet
540 340 m 25
 480 400 l 25
 360 280 l 1049
330 60 m 25
 390 0 l 1049
360 370 m 9
 360 30 l 1025
150 550 m 1
 150 60 l 1
 210 0 l 1
 330 120 l 1025
60 400 m 1
 330 400 l 25
 390 340 l 1025
EndSplineSet
LCarets2: 1 360 
Ligature2: "Ligatures-1" t r
EndChar
StartChar: t_y
Encoding: 61147 61147 731
Width: 780
Flags: MW
LayerCount: 4
Fore
SplineSet
685 350 m 29
 635 400 l 1053
360 -200 m 17
 360 -200 404 -150 450 -150 c 8
 501 -150 519 -200 570 -200 c 24
 610 -200 660 -150 660 -150 c 1
 660 375 l 1029
660 120 m 9
 540 0 l 25
 420 120 l 1
 420 375 l 1049
150 550 m 1
 150 60 l 1
 210 0 l 1
 330 120 l 1025
60 400 m 1
 395 400 l 1
 445 350 l 1025
EndSplineSet
LCarets2: 1 360 
Ligature2: "Ligatures-1" t y
EndChar
StartChar: t_z
Encoding: 61148 61148 732
Width: 660
Flags: W
HStem: -246 92<406 477.806> -196 92<297.781 364.428> 304 92<197.317 403.193> 426 20G<65 92 433 525> 446 130G<65 92 155 195 433 525>
VStem: 104 92<57.9004 307 431 525> 494 92<-125 66>
LayerCount: 2
Back
SplineSet
60 400 m 1
 60 400 91 350 300 350 c 0
 427 350 480 400 480 400 c 1
 540 340 l 1
 360 200 l 1
 540 100 l 1
 540 -150 l 1
 540 -150 484 -200 450 -200 c 0
 412 -200 381 -150 330 -150 c 16
 284 -150 240 -200 240 -200 c 1033
150 550 m 1
 150 60 l 1
 210 0 l 1
 330 120 l 1025
EndSplineSet
Fore
SplineSet
175 596 m 1xb6
 196 575 l 1
 196 404 l 1
 229 399 271 396 325 396 c 0
 452 396 505 446 505 446 c 1
 586 365 l 1
 515 294 l 1
 425 224 l 1
 565 146 l 1
 586 125 l 1
 586 -125 l 1
 515 -196 l 1x76
 515 -196 459 -246 425 -246 c 0xa6
 387 -246 356 -196 305 -196 c 0x66
 273 -196 243 -221 227 -235 c 2
 215 -246 l 1xa6
 194 -225 l 1
 194 -225 196 -222 199 -219 c 2
 270 -149 l 2
 283 -136 318 -104 355 -104 c 0x66
 406 -104 437 -154 475 -154 c 0
 481 -154 487 -153 494 -150 c 1
 494 66 l 1
 367 136 l 1
 185 -46 l 1
 104 35 l 1
 104 321 l 1
 61 332 44 345 38 351 c 2
 17 372 l 2
 15 374 14 375 14 375 c 1
 85 446 l 1
 92 439 l 2
 95 437 98 434 104 431 c 1
 104 525 l 1
 175 596 l 1xb6
196 307 m 1
 196 85 l 2
 196 65 224 57 235 46 c 1
 340 151 l 1
 335 154 l 1
 314 175 l 1
 385 246 l 1
 485 324 l 1
 455 354 l 1
 455 354 402 304 275 304 c 0
 245 304 219 305 196 307 c 1
EndSplineSet
LCarets2: 1 360 
Ligature2: "Ligatures-1" t z
EndChar
StartChar: a_f
Encoding: 61347 61347 337
Width: 570
GlyphClass: 3
Flags: W
HStem: -246 92<240.899 297.5> -196 92<117.486 177.562> 179 92<237.369 314> 354 92<235 314 406 485> 604 32<618.669 630.188>
VStem: 314 92<-125 83 125 179 271 354 446 505>
LayerCount: 2
Back
SplineSet
360 150 m 9
 210 0 l 1
 120 90 l 1
 120 160 l 1
 210 250 l 1
 210 250 232.928594192 225 300 225 c 3
 360 225 l 1033
60 -200 m 17
 60 -200 104 -150 150 -150 c 8
 175 -150 243 -200 270 -200 c 24
 296 -200 360 -150 360 -150 c 1
 360 530 l 1
 480 650 l 17
 480 650 510 590 570 590 c 24
 598 590 660 650 661 650 c 1033
510 400 m 1
 210 400 l 17
 120 310 l 1
 150 220 l 1033
EndSplineSet
Fore
SplineSet
556 425 m 1xbc
 485 354 l 1
 406 354 l 1
 406 250 l 1
 406 175 l 1
 406 -125 l 1
 335 -196 l 1x7c
 335 -196 271 -246 245 -246 c 0xbc
 218 -246 150 -196 125 -196 c 0x7c
 93 -196 63 -220 47 -235 c 2
 35 -246 l 1xbc
 14 -225 l 1
 14 -225 16 -222 19 -219 c 2
 90 -149 l 2
 90 -148 l 0
 104 -134 139 -104 175 -104 c 0x7c
 200 -104 268 -154 295 -154 c 0
 300 -154 308 -152 314 -149 c 1
 314 83 l 1
 185 -46 l 1
 74 65 l 1
 74 135 l 1
 119 180 l 1
 104 195 l 1
 74 285 l 1
 235 446 l 1
 314 446 l 1
 314 505 l 1
 505 696 l 1
 526 675 l 1
 526 675 530 666 538 656 c 0
 553 645 572 636 595 636 c 0
 623 636 685 696 686 696 c 2
 707 675 l 1
 636 604 l 2
 635 604 573 544 545 544 c 0
 515 544 493 559 478 574 c 2
 457 595 l 2
 455 597 454 598 452 600 c 2
 406 555 l 1
 406 446 l 1
 535 446 l 1
 556 425 l 1xbc
314 354 m 1
 185 354 l 2
 185 354 168 337 166 335 c 2
 193 254 l 1
 235 296 l 1
 235 295 l 2
 239 291 261 273 314 271 c 1
 314 354 l 1
314 125 m 1
 314 179 l 1
 275 179 l 2
 212 179 189 201 186 204 c 2
 185 204 l 1
 166 185 l 1
 166 115 l 1
 235 46 l 1
 314 125 l 1
EndSplineSet
LCarets2: 1 360 
Ligature2: "Historic ligatures-1" a f
EndChar
StartChar: a_l
Encoding: 61350 61350 339
Width: 480
GlyphClass: 3
Flags: MW
LayerCount: 4
Fore
SplineSet
150 220 m 17
 120 310 l 1
 210 400 l 1
 360 375 l 1
 360 150 l 9
 210 0 l 1
 120 90 l 1
 120 160 l 1
 210 250 l 1
 210 250 232.928594192 225 300 225 c 3
 360 225 l 1033
330 60 m 25
 390 0 l 25
 450 60 l 1049
330 625 m 25
 390 565 l 1049
360 595 m 9
 360 30 l 1049
EndSplineSet
LCarets2: 1 240 
Ligature2: "Historic ligatures-1" a l
EndChar
StartChar: a_Rsmallcap
Encoding: 61355 61355 857
Width: 780
Flags: MW
LayerCount: 4
Fore
SplineSet
720 60 m 25
 660 0 l 1
 660 0 639 85 600 125 c 24
 577 149 510 150 510 150 c 1025
480 120 m 1
 660 300 l 1
 480 400 l 1
 360 280 l 1049
150 220 m 17
 120 310 l 1
 210 400 l 1
 360 375 l 1
 360 30 l 1
 390 0 l 1
 450 60 l 1049
360 150 m 25
 210 0 l 1
 120 90 l 1
 120 160 l 1
 210 250 l 1
 210 250 232.928594192 225 300 225 c 3
 360 225 l 1033
EndSplineSet
LCarets2: 1 360 
Ligature2: "Historic ligatures-1" a Rsmallcap
EndChar
StartChar: a_thorn
Encoding: 61356 61356 347
Width: 720
Flags: MW
LayerCount: 4
Fore
SplineSet
150 220 m 17
 120 310 l 1
 210 400 l 1
 360 375 l 1
 360 150 l 9
 210 0 l 1
 120 90 l 1
 120 160 l 1
 210 250 l 1
 210 250 232.928594192 225 300 225 c 3
 360 225 l 1033
300 0 m 1
 300 0 355 60 390 60 c 0
 425 60 480 0 480 0 c 9
 600 120 l 1
 600 280 l 25
 480 400 l 1
 360 280 l 1049
335 625 m 25
 385 575 l 1049
360 600 m 1
 360 -150 l 1025
EndSplineSet
LCarets2: 1 360 
Ligature2: "Historic ligatures-1" a thorn
EndChar
StartChar: c_h
Encoding: 61883 61883 853
Width: 780
Flags: W
HStem: 426 20G<245 285 575 615> 426 20G<245 285 575 615> 651 20G<395 435>
VStem: 74 92<99.5798 255> 374 92<65 113 155 273 337 560> 614 92<65 321.97>
LayerCount: 2
Back
SplineSet
360 280 m 9
 240 400 l 25
 120 280 l 25
 120 120 l 25
 240 0 l 25
 360 120 l 1041
630 60 m 25
 690 0 l 1049
390 60 m 25
 450 0 l 1049
390 625 m 25
 450 565 l 1049
420 595 m 9
 420 30 l 1049
660 30 m 25
 660 310 l 25
 570 400 l 1
 420 250 l 1049
EndSplineSet
Fore
SplineSet
344 600 m 1xbc
 415 671 l 1
 445 641 l 1
 466 620 l 1
 496 590 l 1
 466 560 l 1
 466 317 l 1
 595 446 l 1
 706 335 l 1
 706 55 l 1
 736 25 l 1
 665 -46 l 1
 635 -16 l 1
 614 5 l 1
 584 35 l 1
 614 65 l 1
 614 285 l 2
 614 322 565 334 545 354 c 1
 466 275 l 1
 466 55 l 1
 496 25 l 1
 425 -46 l 1
 395 -16 l 1
 374 5 l 1
 344 35 l 1
 374 65 l 1
 374 113 l 1
 215 -46 l 1
 74 95 l 1
 74 255 l 1
 265 446 l 1
 374 337 l 1
 374 570 l 1
 344 600 l 1xbc
374 225 m 1
 374 273 l 1
 335 234 l 1
 215 354 l 1
 166 305 l 1
 166 145 l 2
 166 92 236 75 265 46 c 1
 374 155 l 1
 374 225 l 1
EndSplineSet
LCarets2: 1 360 
Ligature2: "Ligatures-1" c h
EndChar
StartChar: m.alt
Encoding: 61987 61987 588
Width: 720
Flags: MW
AnchorPoint: "abvmark" 360 500 basechar 0
LayerCount: 4
Fore
SplineSet
330 60 m 25
 390 0 l 1049
360 30 m 1
 360 310 l 25
 270 400 l 1
 120 250 l 1049
90 60 m 25
 150 0 l 1049
150 340 m 25
 90 400 l 1049
120 370 m 9
 120 30 l 1025
540 -150 m 25
 600 -90 l 1
 600 310 l 9
 510 400 l 1
 360 250 l 1049
EndSplineSet
EndChar
StartChar: n.alt
Encoding: 61992 61992 598
Width: 480
Flags: MW
AnchorPoint: "abvmark" 240 500 basechar 0
LayerCount: 4
Fore
SplineSet
95 50 m 25
 145 0 l 1049
145 350 m 25
 95 400 l 1049
120 375 m 9
 120 25 l 1025
300 -150 m 25
 360 -90 l 1
 360 310 l 9
 270 400 l 1
 120 250 l 1049
EndSplineSet
EndChar
StartChar: h.alt
Encoding: 62010 62010 860
Width: 480
Flags: MW
AnchorPoint: "abvmark" 240 700 basechar 0
LayerCount: 4
Fore
SplineSet
90 60 m 9
 150 0 l 1041
90 625 m 9
 150 565 l 1041
120 595 m 9
 120 30 l 1041
120 250 m 9
 270 400 l 1
 360 310 l 1
 360 -90 l 17
 300 -150 l 1025
EndSplineSet
EndChar
StartChar: l_l
Encoding: 62713 62713 575
Width: 480
Flags: MW
LayerCount: 4
Fore
SplineSet
330 60 m 25
 390 0 l 25
 450 60 l 1049
330 625 m 25
 390 565 l 1049
360 595 m 9
 360 30 l 1049
90 60 m 25
 150 0 l 25
 210 60 l 1049
90 625 m 25
 150 565 l 1049
120 595 m 9
 120 30 l 1049
EndSplineSet
LCarets2: 1 240 
Ligature2: "Ligatures-1" l l
EndChar
StartChar: longs_j
Encoding: 62715 62715 329
Width: 540
GlyphClass: 3
Flags: MW
LayerCount: 4
Fore
SplineSet
420 370 m 1
 420 -90 l 9
 360 -150 l 1049
390 400 m 25
 450 340 l 1025
-150 -200 m 1
 -150 -200 -106 -150 -60 -150 c 8
 -9 -150 9 -200 60 -200 c 24
 100 -200 150 -150 150 -150 c 1
 150 530 l 1
 270 650 l 1
 270 650 360 600 480 600 c 9
 420 540 l 1025
EndSplineSet
LCarets2: 1 360 
Ligature2: "Ligatures-1" longs j
EndChar
StartChar: longs_k
Encoding: 62716 62716 708
Width: 780
Flags: MW
LayerCount: 4
Fore
SplineSet
630 425 m 25
 690 365 l 1049
420 200 m 1
 660 350 l 9
 660 395 l 1049
540 275 m 1
 660 200 l 1
 660 30 l 1025
630 60 m 25
 690 0 l 1049
390 60 m 25
 450 0 l 1049
-150 -200 m 17
 -150 -200 -106 -150 -60 -150 c 8
 -35 -150 33 -200 60 -200 c 24
 86 -200 150 -150 150 -150 c 1
 150 530 l 1
 270 650 l 1
 270 650 319 600 420 600 c 9
 420 30 l 1025
EndSplineSet
LCarets2: 1 360 
Ligature2: "Ligatures-1" longs k
EndChar
StartChar: longs_longs_k
Encoding: 62718 62718 711
Width: 1020
Flags: MW
LayerCount: 4
Fore
SplineSet
870 425 m 25
 930 365 l 1049
660 200 m 1
 900 350 l 9
 900 395 l 1049
780 275 m 1
 900 200 l 1
 900 30 l 1025
870 60 m 25
 930 0 l 1049
630 60 m 25
 690 0 l 1049
660 30 m 1
 660 600 l 1
 559 600 510 650 510 650 c 9
 390 530 l 1
 390 -150 l 1
 390 -150 334 -200 300 -200 c 0
 262 -200 187 -150 150 -150 c 1025
-150 -200 m 17
 -150 -200 -106 -150 -60 -150 c 8
 -35 -150 33 -200 60 -200 c 24
 86 -200 150 -150 150 -150 c 1
 150 530 l 1
 270 650 l 1
 270 650 337 530 390 530 c 1025
EndSplineSet
LCarets2: 2 360 600 
Ligature2: "Ligatures-1" longs longs k
EndChar
StartChar: f_i
Encoding: 64257 64257 321
Width: 540
Flags: MW
LayerCount: 4
Fore
SplineSet
420 370 m 9
 420 30 l 1025
390 60 m 25
 450 0 l 25
 510 60 l 1049
60 400 m 1
 390 400 l 25
 450 340 l 1025
-150 -200 m 1
 -150 -200 -106 -150 -60 -150 c 8
 -9 -150 9 -200 60 -200 c 24
 100 -200 150 -150 150 -150 c 1
 150 530 l 1
 270 650 l 1
 270 650 360 600 480 600 c 9
 420 540 l 1025
EndSplineSet
LCarets2: 1 360 
Ligature2: "Ligatures-1" f i
EndChar
StartChar: f_l
Encoding: 64258 64258 323
Width: 540
Flags: MW
LayerCount: 4
Fore
SplineSet
-150 -200 m 17
 -150 -200 -106 -150 -60 -150 c 8
 -9 -150 9 -200 60 -200 c 24
 100 -200 150 -150 150 -150 c 1
 150 530 l 1
 270 650 l 1
 270 650 335 625 395 625 c 9
 445 575 l 1025
60 400 m 25
 360 400 l 1049
395 50 m 25
 445 0 l 25
 495 50 l 1049
420 600 m 9
 420 25 l 1049
EndSplineSet
LCarets2: 1 360 
Ligature2: "Ligatures-1" f l
EndChar
StartChar: f_f_i
Encoding: 64259 64259 324
Width: 780
Flags: MW
LayerCount: 4
Fore
SplineSet
150 -150 m 1
 187 -150 262 -200 300 -200 c 0
 334 -200 390 -150 390 -150 c 1
 390 530 l 1
 510 650 l 17
 510 650 600 600 720 600 c 1
 670 550 l 1025
-150 -200 m 1
 -150 -200 -106 -150 -60 -150 c 8
 -35 -150 33 -200 60 -200 c 24
 86 -200 150 -150 150 -150 c 1
 150 530 l 1
 270 650 l 1
 270 650 337 530 390 530 c 1025
60 400 m 1
 635 400 l 25
 685 350 l 1025
660 375 m 9
 660 25 l 1025
635 50 m 25
 685 0 l 25
 735 50 l 1049
EndSplineSet
LCarets2: 2 360 600 
Ligature2: "Ligatures-1" f f i
EndChar
StartChar: f_f_l
Encoding: 64260 64260 325
Width: 780
Flags: MW
LayerCount: 4
Fore
SplineSet
150 -150 m 1
 187 -150 262 -200 300 -200 c 0
 334 -200 390 -150 390 -150 c 1
 390 530 l 1
 510 650 l 17
 510 650 558 625 630 625 c 1
 690 565 l 1025
-150 -200 m 17
 -150 -200 -106 -150 -60 -150 c 8
 -35 -150 33 -200 60 -200 c 24
 86 -200 150 -150 150 -150 c 1
 150 530 l 1
 270 650 l 1
 270 650 337 530 390 530 c 1025
60 400 m 25
 600 400 l 1049
630 60 m 25
 690 0 l 25
 750 60 l 1049
660 595 m 9
 660 30 l 1049
EndSplineSet
LCarets2: 2 360 600 
Ligature2: "Ligatures-1" f f l
EndChar
StartChar: v.alt
Encoding: 65540 -1 782
Width: 480
Flags: W
HStem: 426 20G<95 135 305 345> 426 20G<95 135 305 345>
VStem: 74 92<145 335> 314 92<145 315>
AnchorPoint: "abvmark" 240 500 basechar 0
AnchorPoint: "blwmark" 240 0 basechar 0
LayerCount: 2
Back
SplineSet
300 400 m 1
 360 340 l 25
 360 120 l 1
 240 0 l 25
 120 120 l 1
 120 370 l 1049
150 340 m 25
 90 400 l 1049
EndSplineSet
Fore
SplineSet
254 375 m 1xb0
 325 446 l 1
 406 365 l 1
 406 145 l 1
 215 -46 l 1
 74 95 l 1
 74 345 l 1
 44 375 l 1
 115 446 l 1
 145 416 l 1
 166 395 l 1
 196 365 l 1
 166 335 l 1
 166 145 l 1
 265 46 l 1
 314 95 l 1
 314 315 l 1
 254 375 l 1xb0
EndSplineSet
EndChar
StartChar: w.alt
Encoding: 65542 -1 784
Width: 720
Flags: MW
AnchorPoint: "abvmark" 360 500 basechar 0
AnchorPoint: "blwmark" 360 0 basechar 0
LayerCount: 4
Fore
SplineSet
385 350 m 25
 335 400 l 1049
360 375 m 25
 360 120 l 1
 480 0 l 25
 600 120 l 1
 600 350 l 25
 550 400 l 1049
145 350 m 25
 95 400 l 1049
120 375 m 25
 120 120 l 1
 240 0 l 25
 360 120 l 1025
EndSplineSet
EndChar
